<?xml version="1.0" encoding="UTF-8"?>
<svg xmlns="http://www.w3.org/2000/svg" xmlns:xlink="http://www.w3.org/1999/xlink" viewBox="0 0 164.53 164.53">
  <defs>
    <style>
      .cls-1 {
        isolation: isolate;
      }

      .cls-2 {
        fill: #3258a2;
      }

      .cls-3 {
        mix-blend-mode: multiply;
      }

      .cls-4 {
        clip-path: url(#clippath);
      }
    </style>
    <clipPath id="clippath">
      <circle class="cls-2" cx="82.27" cy="82.27" r="82.27"/>
    </clipPath>
  </defs>
  <g class="cls-1">
    <g id="Capa_2" data-name="Capa 2">
      <g id="Capa_1-2" data-name="Capa 1">
        <g>
          <circle class="cls-2" cx="82.27" cy="82.27" r="82.27"/>
          <g class="cls-4">
            <g class="cls-3">
              <path class="cls-2" d="M60.31,170.92c-2.57,0-5.14-.07-7.71-.21-18.82-1.04-36.91-5.81-53.78-14.2-4.84-2.42-10.44-3.44-16.64-3.02h-.08s.01-.21.01-.21c.38-8.23.74-16.01-.38-24.1-.7-5.09-1.68-10.3-2.62-15.35-1.84-9.82-3.74-19.97-3.72-29.77.03-11.02,2.54-20.39,7.68-28.64C-2.06,31.65,4.56,11.15,3.88-9.08c-.4-9.46-1.02-14.78-1.03-14.84v-.09s.08.01.08.01c10.2,1.37,19.64,4.51,29.62,7.83,3.54,1.18,7.19,2.39,10.85,3.51,11.27,3.62,22.52.8,33.39-1.92,4.49-1.13,9.14-2.29,13.77-3.01,22.11-3.5,42.12.24,65.97,5.5,1.54.35,3.19.47,4.79.58,2.76.2,5.37.38,7.18,1.71,1.33.93,1.47,3.37,1.61,5.94.06,1.14.13,2.33.31,3.39.28,2.27.77,4.44,1.23,6.53.47,2.1.95,4.27,1.23,6.54,2.01,12.42,4.63,23.74,7.4,35.71,1.86,8.02,3.78,16.31,5.48,24.92,3.68,18.22,6.06,39.34-4.18,57.85-4.99,9.06-10.5,18.47-18.02,25.22-10.02,8.84-23.66,7.5-36.86,6.2-3.75-.37-7.64-.75-11.33-.88-3-.21-5.53.09-7.74.94-15.33,5.55-31.22,8.34-47.34,8.34ZM-15.17,153.26c5.17,0,9.89,1.05,14.05,3.13,33.58,16.7,73.21,18.91,108.72,6.06,2.23-.86,4.78-1.17,7.8-.95,3.69.13,7.58.51,11.33.88,13.16,1.3,26.77,2.63,36.75-6.17,7.5-6.73,13-16.13,17.99-25.18,10.21-18.46,7.84-39.55,4.16-57.75-1.71-8.61-3.62-16.9-5.48-24.92-2.77-11.98-5.39-23.29-7.41-35.73-.28-2.27-.77-4.44-1.23-6.53-.47-2.1-.95-4.27-1.23-6.54-.18-1.07-.25-2.25-.31-3.4-.14-2.54-.28-4.94-1.56-5.84-1.77-1.3-4.36-1.48-7.1-1.68-1.6-.11-3.26-.23-4.81-.58-23.84-5.25-43.83-8.99-65.92-5.49-4.62.72-9.27,1.88-13.75,3.01-10.89,2.73-22.15,5.56-33.46,1.92-3.66-1.12-7.32-2.34-10.86-3.51-9.95-3.31-19.35-6.44-29.51-7.81.08.74.65,5.96,1.02,14.76C4.39,1.93,2.64,12.86-1.34,24.31c-3.4,9.78-8.46,19.97-15.47,31.18-11.44,18.36-7.63,38.67-3.94,58.31.95,5.05,1.93,10.27,2.62,15.36,1.13,8.11.77,15.89.39,24.13v.06c.87-.06,1.73-.08,2.58-.08Z"/>
              <path class="cls-2" d="M63.11,165.07c-4.66,0-9.35-.2-14.07-.61-18.07-1.56-36.11-6.08-53.63-13.44-3.68-1.5-7.96-2.11-13.11-1.86v-.14c5.16-.25,9.46.36,13.16,1.87,36.23,15.21,73.83,18.16,108.73,8.52,4.95-1.28,10.12-1.54,15.38-.76,15.5,2.24,31.82,3.78,46-3.96l.07.12c-14.22,7.76-30.57,6.22-46.09,3.97-5.24-.78-10.39-.52-15.32.76-13.3,3.67-27.08,5.52-41.13,5.52Z"/>
              <path class="cls-2" d="M65.33,159.16c-23.55,0-46.81-3.92-69.53-11.73-4.57-1.59-9.36-1.9-13.43-2v-.14c4.09.1,8.89.41,13.48,2.01,35.56,12.24,72.46,14.91,109.69,7.96,3.31-.78,6.61-.55,9.69-.19.93.15,1.87.3,2.8.46,16.55,2.7,33.66,5.5,48.89-3.19l.07.12c-15.28,8.71-32.42,5.91-48.99,3.21-.93-.15-1.87-.3-2.8-.45-3.06-.36-6.34-.59-9.64.19-13.47,2.52-26.9,3.77-40.23,3.77Z"/>
              <path class="cls-2" d="M144.36,156.16c-.37,0-.75,0-1.13,0-8.67-.15-17.69-1.98-26.42-3.74-1.36-.28-2.72-.55-4.08-.82-2.68-.57-5.14-.75-7.75-.57-2.23.16-4.5.59-6.69,1.02-3.02.58-6.15,1.18-9.23,1.07-4.88-.14-9.85-.25-14.66-.34-26.93-.55-54.77-1.12-81.63-9.32-3.28-.91-6.64-1.12-10.37-1.28v-.14c3.75.16,7.11.37,10.41,1.28,26.84,8.2,54.67,8.77,81.59,9.32,4.81.1,9.78.2,14.66.34,3.06.11,6.18-.49,9.2-1.07,2.2-.42,4.47-.86,6.71-1.02,2.63-.19,5.1,0,7.79.57,1.36.27,2.72.54,4.08.82,17.41,3.52,35.41,7.16,51.57-2.36l.07.12c-6.99,4.12-14.89,6.13-24.12,6.13Z"/>
              <path class="cls-2" d="M146.7,153.64c-.58,0-1.17,0-1.77-.03-8.61-.25-17.53-2.23-26.16-4.15-3.78-.84-7.69-1.71-11.53-2.42-4.03-.81-8.03-.31-11.89.16-3.4.42-6.92.85-10.47.41-12.57-1.27-25.19-1.56-37.41-1.84-7.85-.18-15.97-.37-23.99-.81-11.43-.62-22.03-2.65-30.9-4.55-3.34-.74-6.76-1.13-10.19-1.17v-.14c3.43.03,6.87.43,10.22,1.17,8.86,1.9,19.46,3.92,30.88,4.55,8.01.45,16.13.63,23.98.81,12.22.28,24.85.57,37.42,1.84,3.53.44,7.04,0,10.43-.41,3.88-.48,7.88-.97,11.93-.16,3.84.71,7.75,1.58,11.54,2.42,17.22,3.82,35.02,7.77,51.29-1.89l.07.12c-6.87,4.08-14.56,6.07-23.46,6.07Z"/>
              <path class="cls-2" d="M147.33,151.16c-1.48,0-3-.05-4.54-.16-8.73-.6-18.44-2.95-29.69-7.18-2.18-.84-4.72-1.46-7.75-1.89-3.02-.38-6.1-.19-9.08,0-2.98.19-6.07.38-9.11,0-19.56-2.54-39.12-2.28-58.04-2.02-3.64.05-7.4.1-11.12.13-6.86.11-13.78-.86-20.47-1.8-4.96-.7-10.09-1.42-15.17-1.69v-.14c5.09.28,10.23,1,15.19,1.69,6.68.94,13.59,1.91,20.44,1.8,3.71-.03,7.48-.08,11.12-.13,18.92-.26,38.49-.52,58.06,2.03,3.03.38,6.1.19,9.08,0,2.98-.19,6.07-.38,9.11,0,3.05.44,5.6,1.06,7.79,1.9,15.65,5.89,38.78,12.42,58.81,1.16l.07.12c-7.39,4.15-15.51,6.2-24.7,6.2Z"/>
              <path class="cls-2" d="M149.69,148.29c-2.27,0-4.6-.13-6.99-.39-9.22-.99-19.46-3.93-31.31-9.01-2.39-1.09-4.62-1.72-6.61-1.89-3.74-.27-7.52-.51-11.17-.74-9.29-.59-18.9-1.2-28.43-2.29-4.13-.62-7.96-.54-11.17-.38-6.81.16-13.74.55-20.44.92-16.79.93-34.15,1.9-51.28-.55l.02-.14c17.11,2.44,34.47,1.48,51.25.55,6.7-.37,13.63-.76,20.45-.92,3.21-.16,7.05-.24,11.19.38,9.52,1.09,19.13,1.7,28.42,2.29,3.66.23,7.44.47,11.18.74,2.01.17,4.25.81,6.66,1.9,16.6,7.11,41.15,15.19,62.61,3.27l.07.12c-7.39,4.11-15.43,6.13-24.44,6.13Z"/>
              <path class="cls-2" d="M153.7,144.41c-2.8,0-5.7-.19-8.72-.58-10.66-1.37-21.34-4.91-31.66-8.33-.77-.26-1.54-.51-2.31-.76-34.19-11.27-69.98-6.95-104.6-2.78l-2.63.32c-5.36.69-10.61.17-15.69-.33-1.94-.19-3.94-.39-5.93-.52v-.14c2,.13,4,.33,5.94.52,5.07.5,10.32,1.01,15.66.33l2.63-.32c17.34-2.09,35.26-4.26,52.73-4.44,19.58-.2,36.57,2.16,51.92,7.22.77.25,1.54.51,2.31.76,21.03,6.97,42.77,14.18,62.98,3.61l.07.13c-6.8,3.56-14.29,5.32-22.71,5.32Z"/>
              <path class="cls-2" d="M156.62,140.36c-14,0-28.08-4.64-40.87-9.42-31.22-11.62-65.22-12.26-110.25-2.08-7.11,1.52-14.58,1.53-23.54,0l.02-.14c8.93,1.51,16.4,1.51,23.48,0,20.94-4.73,39.23-7.07,55.94-7.13,19.73-.08,37.52,2.94,54.39,9.22,19.62,7.33,42.29,14.35,63.03,4.72l.06.13c-7.26,3.37-14.76,4.71-22.27,4.71Z"/>
              <path class="cls-2" d="M160.14,135.83c-.4,0-.8,0-1.19-.01-7.28-.14-14.92-1.53-22.72-4.13-21.77-7.08-45.41-13.93-70.67-16.1-16.54-1.41-31.72,2.61-47.8,6.87-5.33,1.41-10.85,2.87-16.42,4.12-6.26,1.22-12.52,1.11-19.69-.35l.03-.14c7.15,1.46,13.39,1.57,19.63.35,5.57-1.25,11.08-2.71,16.41-4.12,16.09-4.26,31.28-8.29,47.85-6.87,25.28,2.17,48.92,9.03,70.7,16.11,16.43,5.48,32.04,5.49,45.14.02l.05.13c-6.56,2.74-13.73,4.12-21.32,4.12Z"/>
              <path class="cls-2" d="M166.16,129.65c-11.9,0-23.69-3.03-35.93-6.18-5.58-1.43-11.34-2.92-17.12-4.09-5.99-1.33-11.77-2.65-17.37-3.92-7.12-1.62-14.48-3.29-22.24-4.99-20.19-4.27-38.91,2.13-57.01,8.31-2.79.95-5.67,1.94-8.52,2.87-9.41,3.07-18.43,3.66-26.81,1.75l.03-.14c8.35,1.9,17.34,1.31,26.73-1.75,2.85-.93,5.73-1.92,8.52-2.87,9.07-3.1,18.46-6.3,27.89-8.13,10.57-2.04,20.12-2.11,29.2-.19,7.76,1.7,15.12,3.37,22.24,4.99,5.59,1.27,11.38,2.58,17.37,3.92,5.78,1.17,11.55,2.66,17.13,4.09,18.27,4.7,35.53,9.14,53.65,3.61l.04.14c-6.01,1.83-11.92,2.57-17.8,2.57Z"/>
              <path class="cls-2" d="M170.17,122.83c-14.49,0-28.8-3.41-43.72-6.96-1.73-.41-3.46-.82-5.19-1.23-3.11-.69-6.24-1.11-9.84-1.32-1.44-.13-2.88-.21-4.27-.29-2.8-.17-5.7-.34-8.63-.85-4.85-.97-9.52-2.43-14.03-3.84-7.17-2.24-13.93-4.35-21.39-4.69-15.59-.83-30.16,4.79-44.26,10.22-5.27,2.03-10.72,4.13-16.17,5.88-6.59,2.26-13.82,2.46-22.09.61l.03-.14c8.25,1.84,15.45,1.64,22.02-.61,5.45-1.75,10.9-3.85,16.16-5.88,14.11-5.44,28.69-11.06,44.31-10.23,7.48.35,14.25,2.46,21.43,4.7,4.51,1.41,9.17,2.86,14.02,3.83,2.91.51,5.81.68,8.61.84,1.39.08,2.83.17,4.27.29,3.61.21,6.74.63,9.86,1.33,1.73.41,3.47.82,5.19,1.23,20.34,4.84,39.55,9.41,59.62,5.44l.03.14c-5.37,1.06-10.67,1.51-15.95,1.51Z"/>
              <path class="cls-2" d="M-11,118.11c-3,0-6.03-.32-9.12-1.05l.03-.14c14.86,3.51,28.63-2.47,41.96-8.26,5.52-2.4,11.23-4.88,16.95-6.66,6.95-2.11,13.18-3.25,19.06-3.49,6.81-.28,13.23.7,19.07,2.92l.76.28c7.05,2.6,13.71,5.06,21.02,5.97,3.84.5,7.74.58,11.51.65,3.31.06,6.72.13,10.09.48,6.68.62,13.4,1.56,19.91,2.48,15.41,2.17,31.34,4.41,47.31,2.32l.02.14c-15.99,2.09-31.93-.15-47.35-2.32-6.5-.92-13.23-1.86-19.9-2.48-3.36-.35-6.77-.42-10.08-.48-3.78-.07-7.69-.15-11.53-.65-7.32-.92-13.99-3.37-21.05-5.98l-.76-.28c-10.82-4.1-23.26-3.91-38.04.57-5.71,1.77-11.42,4.25-16.94,6.65-10.58,4.6-21.45,9.32-32.93,9.32Z"/>
              <path class="cls-2" d="M-9.73,114.49c-4.09,0-7.99-.57-11.16-1.13l.02-.14c4.23.74,9.8,1.52,15.35.9,5.72-.64,11.01-2.78,16.13-4.86.98-.4,1.99-.81,2.99-1.2,3.37-1.32,6.8-2.8,10.12-4.23,13-5.61,26.45-11.42,41.09-9.61,6.12.69,11.5,2.75,17.19,4.93,3.54,1.35,7.2,2.76,11.05,3.79,3.16.74,6.43,1.51,9.64,1.32,20.09-.9,40.79-.65,63.3.76,5.57.43,11.32.21,16.88,0,1.8-.07,3.67-.14,5.49-.19v.14c-1.82.05-3.68.12-5.48.19-5.56.21-11.32.43-16.89,0-22.5-1.41-43.2-1.65-63.29-.76-3.23.19-6.51-.58-9.68-1.33-3.86-1.04-7.52-2.44-11.07-3.8-5.68-2.17-11.05-4.23-17.16-4.92-14.6-1.81-28.03,3.99-41.01,9.6-3.32,1.43-6.74,2.91-10.12,4.23-1,.39-2.01.8-2.99,1.2-5.13,2.08-10.43,4.23-16.17,4.87-1.42.16-2.84.22-4.24.22Z"/>
              <path class="cls-2" d="M-12.81,110.18c-2.94,0-5.91-.3-8.9-.99l.03-.14c14.24,3.29,28.22-2.34,39.45-6.87,2.68-1.08,5.41-2.26,8.04-3.4,12.74-5.51,25.91-11.21,40.51-8.54,5.35.95,10.28,2.99,15.04,4.95,2.85,1.18,5.8,2.4,8.84,3.39,6.14,1.86,12.49,3.78,19.1,2.46,27.77-6.02,54.35-6.03,79.21-5.53v.14c-24.85-.5-51.42-.49-79.18,5.53-6.65,1.33-13.02-.6-19.18-2.46-3.05-.99-6-2.21-8.86-3.39-4.76-1.96-9.68-4-15.01-4.94-14.56-2.66-27.71,3.03-40.43,8.54-2.64,1.14-5.36,2.32-8.04,3.4-8.9,3.59-19.52,7.87-30.64,7.87Z"/>
              <path class="cls-2" d="M-13.72,105.3c-2.9,0-5.84-.25-8.82-.81l.03-.14c16.42,3.07,31.67-3.21,46.41-9.28,5.79-2.38,11.78-4.85,17.76-6.72,7.53-2.41,18.76-5.13,29.23-.95,3.07,1.21,6.15,2.71,9.13,4.16,8.25,4.01,16.77,8.17,26.08,6.64,8.58-1.45,17.02-3.47,25.19-5.43,19.07-4.57,37.09-8.88,56.71-6.51l-.02.14c-19.6-2.37-37.6,1.94-56.66,6.51-8.17,1.96-16.62,3.98-25.2,5.43-9.35,1.54-17.9-2.63-26.16-6.65-2.98-1.45-6.06-2.95-9.12-4.16-10.43-4.17-21.62-1.46-29.14.95-5.98,1.87-11.96,4.33-17.75,6.72-12.09,4.98-24.52,10.1-37.67,10.1Z"/>
              <path class="cls-2" d="M-16.11,99.58c-2.39,0-4.8-.14-7.24-.44l.02-.14c17.3,2.14,33.48-3.93,49.12-9.79,6.34-2.37,12.89-4.83,19.47-6.73,8.89-2.63,17.62-2.23,25.25,1.14,3.14,1.34,6.26,2.99,9.28,4.58,8.46,4.46,17.22,9.07,27.26,7.54,9.47-1.34,18.07-4.98,26.39-8.5,5.86-2.48,11.92-5.05,18.32-6.84,11.61-3.24,23.43-4.16,35.15-2.75l-.02.14c-11.69-1.41-23.5-.49-35.09,2.74-6.39,1.79-12.45,4.36-18.3,6.84-8.33,3.53-16.94,7.17-26.43,8.51-10.08,1.54-18.86-3.08-27.34-7.56-3.02-1.59-6.14-3.23-9.27-4.58-7.6-3.36-16.3-3.75-25.16-1.13-6.58,1.9-13.13,4.36-19.46,6.73-13.46,5.04-27.32,10.23-41.96,10.23Z"/>
              <path class="cls-2" d="M102.73,93.71c-9.33,0-17.49-4.9-25.4-9.66-2.31-1.39-4.7-2.82-7.07-4.1-11.48-6.35-23.72-3.64-33.11-.56-2.8.92-5.64,1.89-8.39,2.83-16.99,5.8-34.56,11.79-52.8,10.78v-.14c18.23,1.01,35.78-4.98,52.76-10.77,2.75-.94,5.59-1.91,8.39-2.83,6.34-2.08,11.82-3.15,16.74-3.27,6.13-.15,11.52,1.1,16.48,3.85,2.37,1.28,4.76,2.72,7.07,4.11,9,5.4,18.3,10.99,29.27,9.34,11.05-1.7,20.89-6.77,30.4-11.67,5.34-2.75,10.87-5.6,16.58-7.84,9.8-3.88,20.8-5.18,31.81-3.75l-.02.14c-10.99-1.43-21.96-.13-31.74,3.74-5.71,2.24-11.23,5.09-16.57,7.84-9.52,4.91-19.37,9.98-30.44,11.68-1.34.2-2.66.3-3.96.3Z"/>
              <path class="cls-2" d="M102.69,91.22c-10.48,0-19.46-6.05-28.18-11.91-2.13-1.43-4.34-2.92-6.52-4.28-11.22-6.89-23.36-4.29-33.86-1.32-3.51,1.02-7.04,2.11-10.46,3.16-16.18,4.97-31.46,9.67-48.04,9.39v-.14c16.56.28,31.83-4.42,48-9.39,3.42-1.05,6.96-2.14,10.47-3.16,5.1-1.44,11.13-2.93,17.19-3.03,6.34-.11,11.83,1.32,16.79,4.37,2.19,1.37,4.39,2.85,6.52,4.29,9.74,6.55,19.81,13.33,31.9,11.62,11.09-1.5,20.41-7.06,30.28-12.94l.21-.12c7.4-4.48,14.68-8.73,22.43-11.6,8.76-3.23,16.78-4.11,24.51-2.69l-.03.14c-16.5-3.04-30.98,4.66-46.85,14.27l-.21.12c-9.88,5.89-19.21,11.45-30.33,12.96-1.29.18-2.56.27-3.81.27Z"/>
              <path class="cls-2" d="M102.57,88.21c-.9,0-1.8-.03-2.72-.1-9.93-.89-17.8-6.44-26.14-12.31-3.96-2.79-8.05-5.67-12.36-7.98-5.64-2.99-12.13-3.65-20.42-2.08-8.81,1.57-17.44,3.78-25.79,5.93-13.28,3.41-25.82,6.63-39.3,7.57v-.14c13.46-.94,26-4.16,39.27-7.57,8.35-2.14,16.98-4.36,25.8-5.93,8.32-1.57,14.84-.91,20.51,2.09,4.31,2.31,8.41,5.2,12.37,7.99,8.32,5.86,16.18,11.39,26.07,12.28,15.39,1.13,28.31-7.64,40.8-16.12,6.25-4.25,12.72-8.64,19.42-11.73,5.8-2.74,13.1-3.46,22.33-2.21l-.02.14c-9.2-1.25-16.48-.53-22.25,2.2-6.69,3.09-13.15,7.48-19.4,11.72-11.77,7.99-23.93,16.24-38.18,16.24Z"/>
              <path class="cls-2" d="M102.26,85.49c-12.11,0-21.57-7.23-31.57-14.86-3.09-2.36-6.28-4.79-9.53-6.98-8.59-5.86-18.08-5-27.05-3.21-7.2,1.44-14.22,3.12-21.02,4.75-12.32,2.95-23.96,5.73-36.43,7.17l-.02-.14c12.46-1.43,24.1-4.22,36.41-7.16,6.79-1.63,13.82-3.31,21.02-4.75,9-1.8,18.52-2.65,27.15,3.23,3.26,2.19,6.45,4.62,9.54,6.98,10.36,7.91,20.14,15.38,32.87,14.8,14.66-.61,26.32-9.11,38.67-18.12,2.88-2.1,5.85-4.27,8.85-6.32,9.37-6.5,19.44-9.1,29.92-7.72l-.02.14c-10.44-1.38-20.48,1.21-29.82,7.69-3,2.05-5.97,4.22-8.85,6.31-12.37,9.02-24.05,17.53-38.75,18.14-.47.02-.93.03-1.39.03Z"/>
              <path class="cls-2" d="M103.61,82.32c-1.44,0-2.89-.09-4.33-.28-12.32-1.45-21.57-8.81-31.37-16.61-2.97-2.36-6.04-4.81-9.22-7.09-7.02-4.9-15.93-6.07-27.23-3.59-5.35,1.21-10.62,2.54-15.72,3.82-12.76,3.2-24.82,6.22-37.71,7.6v-.14c12.87-1.37,24.92-4.4,37.68-7.59,5.1-1.28,10.38-2.6,15.73-3.82,11.34-2.5,20.29-1.31,27.34,3.61,3.18,2.28,6.25,4.73,9.23,7.1,9.78,7.78,19.01,15.13,31.3,16.58,16.22,2.06,29.28-7.93,41.92-17.6,3.6-2.76,7.33-5.61,11.1-8.16,8.77-6.04,18.32-8.5,27.63-7.1l-.02.14c-9.27-1.39-18.79,1.06-27.53,7.08-3.76,2.55-7.49,5.4-11.09,8.16-6.34,4.85-12.9,9.87-19.75,13.3-6.16,3.08-12.07,4.6-17.94,4.6Z"/>
              <path class="cls-2" d="M103.48,78.71c-.77,0-1.53-.03-2.3-.08-15.11-.88-27.11-10.99-38.72-20.76-.94-.79-1.88-1.59-2.83-2.37-6.72-5.81-16.09-8.01-25.71-6.05-6.93,1.4-13.68,3.08-20.2,4.7-11.44,2.84-22.24,5.53-33.85,6.81l-.02-.14c11.6-1.28,22.4-3.97,33.83-6.81,6.52-1.62,13.27-3.3,20.21-4.7,9.67-1.97,19.08.24,25.83,6.08.94.79,1.88,1.58,2.83,2.37,11.59,9.76,23.57,19.85,38.63,20.73,15.61,1.03,28.07-8.71,40.11-18.13,3.45-2.7,7.02-5.49,10.63-8.01,7.99-5.76,17.34-8.18,27.04-6.99l-.02.14c-9.66-1.18-18.98,1.23-26.94,6.97-3.61,2.52-7.17,5.31-10.62,8-6.05,4.73-12.3,9.62-18.85,13.08-6.54,3.46-12.8,5.15-19.06,5.15Z"/>
              <path class="cls-2" d="M103.12,74.5c-14.66,0-27.31-9.7-39.62-19.13-2.76-2.12-5.61-4.3-8.4-6.3-5.94-4.03-12.74-5.46-19.65-4.16-7.26,1.42-14.36,3.13-21.23,4.78-10.87,2.61-21.14,5.08-32.05,6.54l-.02-.14c10.9-1.46,21.17-3.93,32.03-6.54,6.87-1.65,13.97-3.36,21.23-4.78,6.95-1.31,13.78.13,19.76,4.18,2.79,2,5.65,4.19,8.41,6.31,14.85,11.38,30.2,23.15,48.95,17.75,11.59-3.42,20.5-10.25,29.94-17.47,4.05-3.1,8.23-6.3,12.68-9.24,6.16-3.83,13.9-5.27,23.02-4.28l-.02.14c-9.08-.98-16.79.45-22.92,4.26-4.44,2.94-8.62,6.14-12.67,9.23-9.45,7.23-18.38,14.06-29.99,17.49-3.25.94-6.4,1.36-9.46,1.36Z"/>
              <path class="cls-2" d="M104.46,68.63c-7.97,0-16.05-2.08-24.62-6.35-8.69-4.32-16.81-10.36-23.61-15.69-12.29-9.46-26.08-5.46-39.42-1.58-4.53,1.31-9.21,2.67-13.77,3.49-1.36.25-2.71.5-4.04.74-4.84.89-9.41,1.73-14.15,2.45l-.02-.14c4.74-.72,9.31-1.56,14.15-2.45,1.33-.25,2.68-.49,4.05-.74,4.55-.81,9.23-2.17,13.75-3.49,6.68-1.94,13.6-3.95,20.24-4.24,7.46-.33,13.77,1.58,19.31,5.85,14.06,11.04,30.69,22.74,49.98,21.97,14.07-.61,24.93-8.81,36.43-17.5,2.8-2.12,5.7-4.31,8.63-6.36,7.44-5.13,16.47-7.11,26.14-5.73l-.02.14c-9.63-1.38-18.63.59-26.04,5.7-2.93,2.05-5.82,4.24-8.62,6.36-11.52,8.7-22.4,16.93-36.51,17.53-.62.02-1.23.04-1.85.04Z"/>
              <path class="cls-2" d="M103.95,61.14c-7.64,0-15.38-1.39-23.09-4.14-8.7-3.11-17.69-8.07-26.71-14.77-5.92-4.31-13.64-5.92-21.74-4.54-6.6,1.21-13.01,2.78-19.2,4.29-8.64,2.12-16.8,4.12-25.5,5.23l-.02-.14c8.7-1.12,16.85-3.12,25.49-5.23,6.19-1.52,12.6-3.09,19.21-4.29,8.14-1.39,15.89.23,21.85,4.56,19.36,14.36,37.69,20.43,56.04,18.56,13.42-1.31,23.95-8.66,35.1-16.45,1.71-1.19,3.47-2.42,5.24-3.63,7.4-4.82,16.26-6.43,26.34-4.79l-.02.14c-10.04-1.63-18.87-.03-26.24,4.77-1.76,1.2-3.53,2.43-5.23,3.62-11.16,7.8-21.7,15.16-35.16,16.47-2.1.21-4.22.32-6.34.32Z"/>
              <path class="cls-2" d="M99.2,52.52c-7.68,0-15.31-1.06-22.71-3.15-8.44-2.39-16.59-6.13-24.24-11.11-6.16-3.99-13.35-5.19-21.36-3.59-6.12,1.07-12.04,2.38-17.78,3.64-7.65,1.68-14.89,3.28-22.57,4.38l-.02-.14c7.68-1.1,14.91-2.69,22.56-4.38,5.73-1.26,11.66-2.57,17.78-3.64,8.05-1.61,15.27-.4,21.46,3.61,30.33,19.79,67.14,18.94,98.46-2.27,7.69-5.25,16.9-4.4,25.67-3.08l-.02.14c-8.75-1.31-17.93-2.16-25.57,3.06-15.17,10.27-32.15,15.98-49.1,16.5-.86.03-1.72.04-2.58.04Z"/>
              <path class="cls-2" d="M92.42,42.12c-17.26,0-33.74-3.14-49.06-9.35-10.52-4.21-21.75-1.23-32.6,1.65-5.76,1.53-11.72,3.11-17.54,3.62v-.14c5.79-.51,11.74-2.09,17.5-3.61,10.88-2.89,22.13-5.87,32.69-1.64,32.44,13.15,70.04,12.48,105.88-1.9,9.19-3.88,19.11-2.59,26.73-1.03l-.03.14c-7.6-1.55-17.5-2.84-26.65,1.02-17.22,6.91-34.98,10.67-52.78,11.19-1.39.04-2.77.06-4.15.06Z"/>
              <path class="cls-2" d="M73.25,34.45c-4.5,0-9.01-.17-13.57-.54-3.8-.32-7.38-1.72-10.84-3.07-2.78-1.09-5.66-2.22-8.69-2.8-10.14-1.73-19.82.38-29.18,2.41-4.99,1.09-10.15,2.21-15.35,2.75v-.14c5.18-.54,10.33-1.66,15.32-2.75,9.37-2.04,19.07-4.15,29.23-2.41,3.04.59,5.92,1.72,8.71,2.81,3.45,1.35,7.02,2.75,10.8,3.06,25.15,2.04,49.21-2.1,74.68-6.48,5.07-.87,10.31-1.77,15.5-2.61,9.02-1.57,18,.17,25.7,1.91l-.03.14c-7.69-1.75-16.64-3.48-25.64-1.91-5.2.84-10.44,1.74-15.5,2.61-20.87,3.59-40.8,7.02-61.15,7.02Z"/>
              <path class="cls-2" d="M60.08,29.77c-2.87,0-5.69-.4-8.38-1.55-13.87-6.11-28.45-3.87-42.55-1.69-3.76.58-7.65,1.18-11.43,1.6l-.02-.14c3.78-.42,7.66-1.02,11.42-1.6,14.12-2.18,28.72-4.43,42.63,1.7,5.94,2.52,12.53,1.41,18.91.34l.95-.16c2.56-.46,5.12-.92,7.68-1.38,15.85-2.87,32.24-5.84,48.19-6.99,17.84-1.29,33.41-.14,47.6,3.52l-.04.14c-31.57-8.15-62.73-2.5-95.72,3.47-2.56.46-5.12.93-7.68,1.38l-.95.16c-3.51.59-7.1,1.19-10.6,1.19Z"/>
              <path class="cls-2" d="M57.6,25.49c-1.38,0-2.74-.19-4-.67-18.34-6.37-36.77-4.46-54.08-1.95l-.02-.14c17.33-2.51,35.78-4.43,54.15,1.95,4.13,1.57,9.27,0,13.03-1.14,40.09-12.5,76.38-13.61,107.85-3.31l-.04.14c-31.44-10.3-67.7-9.19-107.76,3.31-2.63.8-5.94,1.81-9.12,1.81Z"/>
              <path class="cls-2" d="M54.12,21.5c-.62,0-1.24-.08-1.85-.28C34.18,14.23,15.37,15.53,1,17.44l-.02-.14c14.39-1.92,33.23-3.22,51.34,3.78,1.77.59,3.73.12,5.07-.38,20.23-7.32,39.82-11.54,58.21-12.54,20.85-1.14,40.47,1.85,58.31,8.88l-.05.13c-33.76-13.31-72.93-12.08-116.43,3.66-.9.34-2.09.66-3.32.66Z"/>
              <path class="cls-2" d="M53.1,17.7c-.63,0-1.22-.09-1.77-.27-15.23-5.62-31.76-7.46-49.14-5.46l-.02-.14c17.4-2,33.96-.16,49.21,5.47,1.88.63,3.89.04,5.25-.57C96.47-.27,137.89-1.29,173.25,13.84l-.06.13C137.87-1.15,96.49-.12,56.68,16.85c-1.26.56-2.48.85-3.58.85Z"/>
              <path class="cls-2" d="M51.7,13.9c-1.73,0-3.4-.34-4.93-1.03C32.34,6.15,16.58,5.93,3.07,6.6v-.14c13.52-.67,29.3-.44,43.76,6.29,3.41,1.53,7.49,1.33,11.5-.57C76.34,3.59,95.55-.86,115.41-1.03c19.46-.17,38.69,3.75,57.15,11.66l-.06.13c-37.67-16.12-78.2-15.57-114.12,1.55-2.25,1.07-4.52,1.6-6.69,1.6Z"/>
              <path class="cls-2" d="M51.11,10.15c-.53,0-1.04-.08-1.5-.31C31.73,3.28,17.56.66,3.68,1.35v-.14c13.9-.69,28.08,1.93,45.99,8.5.99.49,2.28.26,3.32.07.15-.03.29-.05.43-.08,5.09-1.54,10.19-3.29,15.13-4.98C82.95-.21,97.85-5.31,113.69-5.46c17.54,0,34.28,5.3,50.47,10.43,2.52.8,5.13,1.63,7.69,2.42l-.04.14c-2.56-.79-5.17-1.62-7.69-2.42C147.94-.01,131.21-5.31,113.69-5.31c-15.82.14-30.71,5.24-45.1,10.18-4.94,1.69-10.04,3.44-15.14,4.98-.15.03-.29.05-.44.08-.59.11-1.25.23-1.9.23Z"/>
              <path class="cls-2" d="M51.1,6.25c-.87,0-1.75-.11-2.62-.38C33.97.77,19.64-3.8,4.01-3.83v-.14c15.66.04,30,4.61,44.52,9.7,3.21,1,6.62-.18,9.23-1.32,17.23-7.23,34.54-11.31,51.45-12.13,18.36-.89,35.82,2.1,51.88,8.91,3.01,1.24,6.39,2.23,10.05,2.93l-.03.14c-3.67-.71-7.06-1.7-10.07-2.94-39.29-16.65-77.82-7.44-103.22,3.22-1.93.85-4.3,1.71-6.71,1.71Z"/>
              <path class="cls-2" d="M50.64,2.19c-.53,0-1.06-.08-1.59-.31-3.12-.95-6.25-1.97-9.28-2.96-11.92-3.88-23.18-7.55-35.68-7.89v-.14c12.53.34,23.8,4.01,35.73,7.89,3.03.99,6.17,2.01,9.29,2.96,1.09.47,2.21.28,3.28.1.22-.04.44-.07.66-.11,6.78-1.52,13.24-3.56,19.49-5.54,8.87-2.81,17.24-5.46,26.56-6.78,21.35-3.07,41.58,2.76,61.15,8.4,3.36.97,6.83,1.97,10.24,2.9l-.04.14c-3.41-.94-6.88-1.94-10.24-2.9-19.55-5.64-39.77-11.46-61.09-8.4-9.31,1.31-17.68,3.97-26.54,6.77-6.25,1.98-12.71,4.03-19.5,5.54-.23.03-.45.07-.67.11-.58.1-1.17.2-1.76.2Z"/>
              <path class="cls-2" d="M161.2,158.63l-.13-.06c2.39-5.19,5.25-9.79,8.27-14.65,1.18-1.9,2.41-3.87,3.6-5.88,10.94-18.46,8.45-39.21,6.05-59.28-.25-2.12-.52-4.3-.75-6.44-.85-7.47-2.02-14.9-3.15-22.09-1.39-8.84-2.83-17.97-3.67-27.18-.6-5.98-1.9-11.95-3.16-17.73-1.13-5.21-2.31-10.6-2.96-15.98l.14-.02c.66,5.38,1.83,10.76,2.96,15.97,1.26,5.78,2.56,11.76,3.16,17.74.84,9.2,2.28,18.34,3.67,27.17,1.13,7.19,2.3,14.63,3.15,22.1.24,2.13.5,4.32.75,6.44,2.41,20.09,4.89,40.87-6.07,59.37-1.2,2.01-2.42,3.98-3.6,5.89-3.02,4.86-5.88,9.46-8.26,14.64Z"/>
              <path class="cls-2" d="M158.05,159.88l-.13-.05c1.61-4.19,3.68-8.08,5.68-11.85.9-1.7,1.83-3.45,2.72-5.21,2.09-4.54,4.34-9.84,4.54-15.32.25-23.22-.69-46.76-1.6-69.53-.46-11.43-.93-23.24-1.25-34.89-.23-7.04-1.9-14-3.52-20.74-1.04-4.35-2.12-8.84-2.82-13.35l.14-.02c.7,4.51,1.77,9,2.81,13.34,1.62,6.74,3.29,13.72,3.52,20.77.32,11.64.79,23.46,1.24,34.88.91,22.77,1.85,46.31,1.6,69.53-.2,5.51-2.45,10.83-4.55,15.38-.88,1.77-1.82,3.52-2.72,5.22-2,3.76-4.07,7.65-5.68,11.83Z"/>
              <path class="cls-2" d="M155,160.94l-.13-.04c.89-2.71,2.04-5.4,3.14-8.01,2.96-6.98,6.02-14.21,4.5-22.2-5.49-31.13-3.29-59.87,1.71-93.45,2.22-14.26-1.06-27.84-4.23-40.97-.62-2.57-1.26-5.23-1.85-7.85l.14-.03c.59,2.62,1.23,5.28,1.85,7.85,3.17,13.15,6.45,26.74,4.23,41.03-4.99,33.56-7.2,62.29-1.71,93.4,1.52,8.03-1.55,15.27-4.51,22.28-1.1,2.61-2.25,5.3-3.14,8Z"/>
              <path class="cls-2" d="M152.01,161.79l-.14-.04c3.12-10.01,5.93-20.72,3.06-31.81-.62-2.38-1.29-4.78-1.93-7.11-2.03-7.35-4.13-14.94-5.02-22.42-.99-8.38-.33-15.78,2.02-22.62,12.65-36.09,14.12-64.69,4.63-90.01l.13-.05c5.21,13.89,7.07,28.68,5.69,45.22-1.14,13.65-4.51,28.34-10.32,44.89-5.23,15.2-1.23,29.65,3,44.96.64,2.33,1.31,4.74,1.93,7.12,2.88,11.12.06,21.85-3.06,31.88Z"/>
              <path class="cls-2" d="M148.97,162.4l-.14-.04c3.96-14.4-.53-28.35-4.87-41.84-1.1-3.43-2.24-6.97-3.24-10.48-1.86-6.87-3.26-14.15-.95-20.89.68-1.91,1.36-3.83,2.05-5.75,11.25-31.49,22.88-64.05,9.3-96.38l.13-.06c13.61,32.38,1.97,64.97-9.29,96.48-.69,1.92-1.37,3.84-2.05,5.75-2.3,6.7-.9,13.96.95,20.8.99,3.51,2.13,7.05,3.23,10.47,2.18,6.77,4.43,13.77,5.59,20.72,1.3,7.79,1.06,14.72-.72,21.21Z"/>
              <path class="cls-2" d="M145.77,162.77l-.14-.02c1.59-13.29-2.82-25.92-7.08-38.14-1.4-4.02-2.85-8.17-4.07-12.3-3.26-10.86-3-20.44.76-28.48,13.16-27.68,26.44-63.79,12.32-97.62l.13-.05c6.28,15.04,7.73,31.27,4.44,49.62-2.53,14.11-7.85,29.39-16.75,48.12-3.75,8.01-4,17.55-.75,28.37,1.22,4.12,2.67,8.27,4.07,12.29,4.27,12.23,8.68,24.88,7.09,38.2Z"/>
              <path class="cls-2" d="M142.37,162.92h-.14c.21-6.14-1.05-11.83-2.45-17.06-1.4-5.48-3.46-11.01-5.46-16.35-2.51-6.73-5.12-13.69-6.35-20.5-1.38-7.64-.86-14.32,1.58-20.42.76-1.95,1.53-3.91,2.31-5.87,12.51-31.74,25.45-64.57,12.03-97.33l.13-.05c6.02,14.68,7.21,30.81,3.65,49.29-3.15,16.34-9.52,32.51-15.68,48.14-.78,1.97-1.55,3.92-2.31,5.87-5.42,13.55-.24,27.41,4.77,40.82,2,5.35,4.07,10.88,5.47,16.37,1.4,5.24,2.66,10.95,2.45,17.1Z"/>
              <path class="cls-2" d="M138.76,162.92c-.33-3.95-.91-7.51-1.83-11.19-1.52-5.64-3.59-11.42-5.6-17.01-6.05-16.85-12.31-34.28-4.63-51.07,13.01-27.87,26.28-64.32,13.4-99.12l.13-.05c5.71,15.41,6.82,31.9,3.42,50.43-2.64,14.37-7.99,29.88-16.82,48.8-7.66,16.74-1.41,34.13,4.63,50.96,2.01,5.59,4.09,11.38,5.61,17.02.92,3.69,1.51,7.26,1.84,11.22h-.14Z"/>
              <path class="cls-2" d="M135.26,162.79l-.06-.41c-.39-2.62-.76-5.1-1.48-7.62-1.37-4.64-2.99-9.43-4.57-14.07-7.05-20.81-14.35-42.33-4.15-62.73,11.23-23.06,22.3-58.13,11.19-94.25l.14-.04c4.6,14.95,5.75,31.05,3.43,47.87-2.11,15.26-7.03,30.9-14.62,46.49-10.17,20.35-2.89,41.84,4.15,62.62,1.57,4.64,3.2,9.43,4.57,14.07.72,2.53,1.09,5.01,1.49,7.63l.06.41-.14.02Z"/>
              <path class="cls-2" d="M131.67,162.53c-.26-3.13-1.17-5.99-1.94-8.14-3.79-10.88-7.38-21.54-9.69-32.32-2.63-12.26-3.24-23.21-1.87-33.47.98-7.49,3.82-14.15,6.82-21.2,2.17-5.1,4.42-10.37,5.88-15.96,6.14-23.98,6.57-47.03,1.27-68.49l.14-.03c5.31,21.49,4.88,44.55-1.27,68.56-1.46,5.6-3.71,10.87-5.88,15.98-3,7.04-5.84,13.69-6.81,21.16-3.14,23.53,5.01,46.93,11.56,65.72.77,2.15,1.68,5.02,1.95,8.17h-.14Z"/>
              <path class="cls-2" d="M128.02,162.19c-.37-2.69-1.14-5.38-1.89-7.99-.33-1.05-.67-2.11-1.01-3.16-7.18-22.55-14.61-45.88-8.09-68.7,8.56-29.77,16.54-64.94,10.91-100.05l.14-.02c5.64,35.13-2.35,70.32-10.91,100.11-6.51,22.78.91,46.08,8.09,68.61.34,1.06.67,2.11,1.01,3.17.75,2.61,1.52,5.31,1.89,8.01l-.14.02Z"/>
              <path class="cls-2" d="M124.38,161.84c-.92-3.63-1.9-7.32-2.84-10.89-5.66-21.33-11.51-43.38-8.1-65.96.85-5.58,1.75-11.22,2.62-16.67,4.73-29.56,9.19-57.48,7.57-86.59h.14c1.63,29.12-2.84,57.05-7.57,86.61-.87,5.45-1.77,11.08-2.62,16.67-3.41,22.54,2.44,44.58,8.1,65.9.95,3.57,1.93,7.26,2.85,10.89l-.14.03Z"/>
              <path class="cls-2" d="M121,161.57c-.41-3.8-1.03-7.14-1.88-10.21-5.25-19.47-8.2-40.31-9.29-65.58-.11-3.53.4-7.12.89-10.59.33-2.31.67-4.7.82-7.04,2.16-26.11,4.21-49.75,7.39-74.67.63-4.39.72-8.47.27-12.13l.14-.02c.45,3.68.36,7.77-.27,12.17-3.18,24.91-5.23,48.55-7.39,74.66-.15,2.35-.49,4.74-.82,7.05-.49,3.46-1,7.04-.89,10.56,1.09,25.27,4.04,46.1,9.28,65.55.86,3.08,1.47,6.43,1.89,10.24l-.14.02Z"/>
              <path class="cls-2" d="M117.93,161.44c-.33-4.21-.7-8.35-1.65-12.74-3.92-15.48-5.46-30.72-6.82-44.16-.23-2.2-.58-4.43-.92-6.59-.51-3.24-1.05-6.6-1.16-9.9-1.8-29.45-2.85-60.85,5.5-92.5,1.19-4.25,1.47-8.69,1.73-12.99.03-.49.06-.99.09-1.48h.14c-.03.5-.06.99-.09,1.49-.27,4.3-.55,8.76-1.74,13.02-8.34,31.62-7.29,63.01-5.49,92.45.11,3.29.65,6.65,1.16,9.89.34,2.16.7,4.4.93,6.6,1.36,13.44,2.9,28.67,6.82,44.14.96,4.4,1.33,8.55,1.66,12.76h-.14Z"/>
              <path class="cls-2" d="M115.23,161.46h-.14c.05-2.32-.13-4.77-.52-7.08-.62-4.14-1.27-8.29-1.89-12.3-2.08-13.45-4.05-26.15-5.5-39.63-1.12-9.74-2.79-18.89-4.56-28.58-.89-4.87-1.8-9.9-2.64-15-1.97-12.73-1.67-25.33.95-39.63,1.11-6.06,2.77-11.83,4.38-17.4,2.03-7.03,3.94-13.67,4.84-20.83l.14.02c-.9,7.18-2.82,13.82-4.85,20.85-1.61,5.58-3.27,11.34-4.38,17.39-2.62,14.29-2.92,26.87-.95,39.58.84,5.1,1.76,10.13,2.64,15,1.77,9.69,3.43,18.85,4.56,28.59,1.45,13.48,3.42,26.18,5.5,39.62.62,4.01,1.26,8.15,1.89,12.3.39,2.33.57,4.78.52,7.11Z"/>
              <path class="cls-2" d="M112.52,161.65l-.14-.02c.52-4.12.02-8.37-.46-11.62-.42-2.91-.83-5.8-1.25-8.66-1.88-13.02-3.65-25.33-5.2-38.33-1.12-10.54-4.17-20.25-7.39-30.53-1.08-3.45-2.2-7.02-3.22-10.58-7.25-24.8-.28-49.01,8.34-71.49.9-2.4,1.45-4.94,1.98-7.4.14-.64.28-1.29.42-1.92l.14.03c-.14.63-.28,1.28-.42,1.92-.53,2.46-1.08,5.01-1.98,7.42-8.61,22.45-15.57,46.64-8.34,71.4,1.03,3.57,2.14,7.13,3.22,10.58,3.22,10.28,6.27,20,7.39,30.55,1.55,13.01,3.32,25.31,5.2,38.33.41,2.87.83,5.75,1.24,8.66.49,3.25.98,7.52.46,11.66Z"/>
              <path class="cls-2" d="M109.83,161.99h-.14c.56-5.31.49-10.16-.23-14.82-1.1-7.26-2.02-14.36-2.91-21.23-1.11-8.51-2.25-17.3-3.72-26.34-1.66-10.48-5.63-19.57-9.83-29.18-.57-1.31-1.15-2.63-1.72-3.97-5.08-11.82-6.55-24.55-4.51-38.91,1.61-11.27,5.33-23.31,11.71-37.9,1.18-2.74,1.98-5.82,2.62-8.29l.14.04c-.65,2.47-1.45,5.55-2.63,8.31-9.43,21.56-18.77,49.76-7.2,76.69.57,1.33,1.15,2.65,1.72,3.96,4.2,9.62,8.17,18.71,9.84,29.22,1.47,9.04,2.61,17.83,3.72,26.34.89,6.87,1.82,13.97,2.91,21.23.72,4.67.8,9.53.23,14.84Z"/>
              <path class="cls-2" d="M107.09,162.5h-.14c1.74-22.32-2.76-43.92-7.52-66.78l-.02-.08c-1.9-8.76-5.6-16.25-9.51-24.17-1.85-3.75-3.77-7.64-5.46-11.63-4.34-10.36-5.25-21.65-2.78-34.49,2.18-11.37,6.68-22.6,11.03-33.47,1.33-3.32,2.7-6.75,3.96-10.08l.13.05c-1.26,3.33-2.63,6.76-3.96,10.08-8.81,22-17.92,44.75-8.25,67.85,1.68,3.99,3.6,7.87,5.45,11.62,3.74,7.58,7.61,15.42,9.52,24.2l.02.08c4.77,22.88,9.27,44.49,7.52,66.81Z"/>
              <path class="cls-2" d="M104.26,163.18l-.14-.02c2.46-22.24-.67-47.1-9.07-71.88-2.17-6.51-5.27-12.89-8.27-19.05-5.9-12.13-12.01-24.68-11.25-38.77.79-12.83,5.82-24.57,10.68-35.92,2.11-4.93,4.3-10.04,6.11-15.17l.13.05c-1.82,5.14-4,10.24-6.12,15.18-4.86,11.34-9.88,23.07-10.67,35.87-.75,14.05,5.34,26.58,11.24,38.7,3,6.17,6.11,12.55,8.28,19.07,4.04,11.93,6.89,23.87,8.46,35.51,1.7,12.57,1.9,24.83.62,36.44Z"/>
              <path class="cls-2" d="M101.27,164.04l-.14-.02c4.04-26.15-.2-54.67-11.94-80.31-1.62-3.41-3.39-6.81-5.1-10.09-3.9-7.48-7.94-15.22-10.44-23.65-5.62-18.64,1.71-35.97,8.8-52.74,1.97-4.66,4.01-9.47,5.69-14.18l.13.05c-1.69,4.71-3.73,9.53-5.7,14.19-7.08,16.74-14.4,34.04-8.79,52.64,2.5,8.42,6.53,16.15,10.43,23.63,1.71,3.29,3.49,6.68,5.1,10.09,11.75,25.66,16,54.21,11.96,80.39Z"/>
              <path class="cls-2" d="M98.08,165.07l-.14-.03c5.43-23.31,1.91-50.78-9.9-77.35-1.96-4.45-4.24-8.93-6.44-13.27-7.25-14.26-14.74-29-12.7-45.7,1.32-11.18,5.62-21.44,9.79-31.37,1.85-4.4,3.76-8.95,5.39-13.53l.13.05c-1.63,4.59-3.54,9.14-5.39,13.54-4.16,9.92-8.47,20.18-9.78,31.33-2.03,16.66,5.45,31.38,12.69,45.62,2.21,4.34,4.49,8.83,6.44,13.28,5.6,12.61,9.37,25.39,11.19,37.98,2.01,13.88,1.58,27.16-1.29,39.46Z"/>
              <path class="cls-2" d="M94.77,166.18l-.14-.04c7.71-27.98,1.8-60.17-17.58-95.69-5.08-9.53-10.97-22.23-11.38-36.04-.39-12.17,4.23-23.42,8.69-34.3,2.07-5.05,4.21-10.27,5.81-15.48l.14.04c-1.6,5.22-3.74,10.44-5.81,15.49-4.46,10.87-9.07,22.11-8.68,34.25.41,13.77,6.29,26.46,11.36,35.97,8.81,16.15,14.91,31.85,18.12,46.67,3.8,17.52,3.63,34.05-.53,49.13Z"/>
              <path class="cls-2" d="M91.59,167.21l-.13-.05c7.3-20.75,5.13-44.61-6.83-75.12-2.48-6.47-5.44-12.74-8.3-18.8-3.93-8.31-7.99-16.91-10.84-26.12-5.46-17.93.9-34.77,7.04-51.06,1.31-3.48,2.67-7.09,3.88-10.61l.13.05c-1.2,3.53-2.56,7.13-3.88,10.62-6.14,16.27-12.48,33.09-7.04,50.97,2.85,9.2,6.91,17.79,10.83,26.1,2.87,6.06,5.83,12.33,8.31,18.81,5.39,13.76,8.72,25.93,10.17,37.2,1.78,13.87.66,26.66-3.34,38.02Z"/>
              <path class="cls-2" d="M88.66,168.03l-.14-.04c7.53-23.68,4.46-50.93-9.39-83.33-1.36-3.12-2.81-6.31-4.22-9.38-7.73-16.9-15.73-34.38-12.84-53.76,1.17-7.73,3.76-14.93,6.26-21.9,1.55-4.32,3.16-8.79,4.42-13.35l.14.04c-1.26,4.57-2.87,9.04-4.42,13.36-2.5,6.96-5.09,14.15-6.26,21.87-2.88,19.34,5.11,36.8,12.83,53.68,1.41,3.08,2.86,6.26,4.22,9.39,6.34,14.82,10.33,28.28,12.19,41.14,2.22,15.26,1.27,29.48-2.8,42.29Z"/>
              <path class="cls-2" d="M85.84,168.69l-.14-.04c10.23-33.58-2.14-65.94-14.1-97.23-3.14-8.22-6.39-16.72-9.14-25.04-6.11-18.17-.53-36.03,4.88-53.29.62-1.99,1.26-4.04,1.87-6.04l.14.04c-.61,2.01-1.25,4.06-1.87,6.05-5.4,17.25-10.98,35.08-4.88,53.2,2.74,8.31,5.99,16.81,9.14,25.04,11.97,31.32,24.35,63.7,14.11,97.33Z"/>
              <path class="cls-2" d="M83,169.22l-.14-.04c4.67-17.59,4.44-36.31-.69-57.25-3.48-14.51-8.27-28.3-12.9-41.64-2.94-8.48-5.99-17.25-8.7-26.2-5.41-17.8-.65-35.15,3.95-51.93.41-1.48.81-2.95,1.21-4.43l.14.04c-.4,1.48-.8,2.95-1.21,4.43-4.59,16.76-9.34,34.09-3.95,51.85,2.72,8.95,5.76,17.72,8.7,26.2,4.63,13.34,9.42,27.13,12.9,41.65,5.14,20.96,5.36,39.71.69,57.32Z"/>
              <path class="cls-2" d="M80.02,169.67l-.14-.03c7.26-35.16-3.41-69.67-13.72-103.04-2.34-7.56-4.75-15.37-6.92-23.07-5.65-19.28-1.04-38.35,3.02-55.17l.14.03c-4.06,16.8-8.66,35.85-3.02,55.1,2.17,7.7,4.59,15.51,6.92,23.07,5.16,16.69,10.5,33.95,13.53,51.08,3.4,19.22,3.46,36.24.2,52.03Z"/>
              <path class="cls-2" d="M76.79,170.04l-.14-.02c4.87-35.64-3.7-69.07-12.76-104.47-2.55-9.96-5.19-20.26-7.49-30.56-3.1-14.48-.68-28.45,1.67-41.96.24-1.39.48-2.78.72-4.17l.14.02c-.24,1.39-.48,2.78-.72,4.17-2.34,13.5-4.77,27.45-1.67,41.9,2.3,10.3,4.94,20.59,7.49,30.55,4.56,17.81,8.87,34.64,11.56,51.95,3.04,19.62,3.43,36.33,1.21,52.57Z"/>
              <path class="cls-2" d="M73.14,170.34h-.14c1.82-46.84-7.45-92.55-17.74-134.96-2.92-12.13-1.78-24.09-.67-35.66.33-3.44.67-7.01.9-10.51h.14c-.23,3.52-.57,7.08-.9,10.52-1.11,11.56-2.25,23.51.67,35.61,10.3,42.43,19.57,88.15,17.75,135Z"/>
              <path class="cls-2" d="M68.91,170.57h-.14c.71-8.19-.1-16.42-1-24.16-2.38-17.68-3.33-35.29-4.25-52.32-.32-6.01-.66-12.22-1.05-18.37-.6-9-2.76-17.25-5.05-26-1.29-4.93-2.63-10.03-3.67-15.31-2.19-11.21-1.81-22.1-1.44-32.64.14-4.09.29-8.31.29-12.5h.14c0,4.19-.14,8.42-.29,12.51-.37,10.53-.75,21.42,1.44,32.6,1.04,5.27,2.37,10.37,3.66,15.3,2.29,8.75,4.45,17.01,5.05,26.02.39,6.15.73,12.37,1.05,18.37.92,17.03,1.87,34.64,4.25,52.31.9,7.74,1.72,15.98,1,24.17Z"/>
              <path class="cls-2" d="M63.74,170.71c-.31-9.36-1.76-18.61-3.17-27.56-1-6.34-2.03-12.89-2.66-19.47-1.16-12.19.23-23.64,1.9-35.26,1.8-13.99-1.12-26.8-4.22-40.36-1.11-4.85-2.25-9.87-3.17-14.95-1.89-10.68-2.05-21.24-2.21-31.45-.06-4.11-.13-8.35-.3-12.54h.14c.18,4.19.24,8.43.3,12.54.15,10.21.31,20.76,2.21,31.43.91,5.08,2.06,10.09,3.17,14.94,3.1,13.57,6.03,26.39,4.22,40.41-1.66,11.62-3.05,23.06-1.89,35.23.63,6.58,1.66,13.13,2.65,19.46,1.41,8.95,2.87,18.21,3.17,27.58h-.14Z"/>
              <path class="cls-2" d="M57.67,170.7c-.92-5.8-2.28-11.63-3.61-17.28-3.27-13.94-6.65-28.35-3.55-43.61.84-4.17,1.89-8.26,2.91-12.2,3.14-12.19,6.1-23.69,2.96-36.66-5.57-23.18-7.65-45.66-9.06-72.28h.14c1.41,26.61,3.49,49.08,9.06,72.25,3.14,13,.18,24.52-2.96,36.72-1.02,3.95-2.07,8.03-2.91,12.2-3.1,15.22.28,29.62,3.55,43.54,1.32,5.64,2.69,11.48,3.61,17.29l-.14.02Z"/>
              <path class="cls-2" d="M50.45,170.46c-.95-3.24-2.03-6.58-3.08-9.82-5.23-16.19-10.64-32.93-4.81-49.32,1.21-3.47,2.55-6.95,3.85-10.31,5.65-14.63,10.99-28.44,7.33-44.79-4.06-17.7-5.72-35.22-7.32-52.16-.49-5.22-1-10.61-1.58-15.96l.14-.02c.57,5.35,1.08,10.75,1.58,15.96,1.6,16.93,3.25,34.44,7.31,52.14,1.65,7.36,1.58,14.95-.21,23.22-1.6,7.38-4.41,14.64-7.12,21.66-1.3,3.36-2.64,6.84-3.85,10.31-5.81,16.34-.41,33.06,4.81,49.23,1.04,3.23,2.12,6.58,3.08,9.82l-.14.04Z"/>
              <path class="cls-2" d="M42.02,169.73c-.45-1.12-.91-2.25-1.37-3.39-3.48-8.59-7.08-17.47-8.92-26.51-2.09-10.26-1.52-19.15,1.74-27.18,2.03-5.04,4.96-9.84,7.8-14.48,5.35-8.75,10.88-17.8,10.39-28.7-.71-17.27-3.12-34.75-5.44-51.65-1.37-9.97-2.79-20.28-3.84-30.41h.14c1.05,10.12,2.47,20.43,3.84,30.39,2.32,16.91,4.72,34.39,5.44,51.67.5,10.94-5.05,20.01-10.41,28.78-2.83,4.63-5.76,9.43-7.79,14.46-7.27,17.92.4,36.87,7.18,53.59.46,1.14.92,2.27,1.37,3.39l-.13.05Z"/>
              <path class="cls-2" d="M32.72,168.24c-.51-1.22-1.03-2.44-1.54-3.67-4.25-10.05-8.64-20.44-9.66-31.62-.66-6.11.43-12.09,3.35-18.28,2.61-5.53,6.42-10.77,10.12-15.84,2.11-2.89,4.29-5.89,6.25-8.94,5.38-8.16,7.8-17.51,7.38-28.57-1.33-25.16-4.91-49.7-8.76-74.73l.14-.02c3.86,25.03,7.43,49.58,8.77,74.74.42,11.1-2,20.47-7.4,28.66-1.97,3.06-4.15,6.05-6.26,8.95-7.67,10.53-14.91,20.47-13.44,34.03,1.01,11.16,5.4,21.54,9.65,31.57.52,1.22,1.03,2.44,1.54,3.67l-.13.05Z"/>
              <path class="cls-2" d="M23.31,165.9c-3.98-8.96-7.68-17.76-9.15-26.83-1.72-10.6.01-19.68,5.28-27.76,2.75-4.25,5.91-8.13,8.96-11.88,6.74-8.29,13.1-16.12,14.91-27.13,4.25-24.54.19-48.71-3.73-72.09-.8-4.77-1.63-9.7-2.37-14.56l.14-.02c.74,4.86,1.57,9.79,2.37,14.55,3.92,23.38,7.98,47.57,3.73,72.13-1.82,11.05-8.19,18.89-14.94,27.19-3.05,3.75-6.2,7.63-8.95,11.87-12.09,18.52-2.86,39.29,3.87,54.46l-.13.06Z"/>
              <path class="cls-2" d="M14.64,162.96l-.05-.13c-3.3-8.83-6.71-17.97-7.65-27.59-.57-6.68.84-13.26,4.32-20.14,3.11-6.13,7.55-11.95,11.85-17.58,1.62-2.12,3.29-4.3,4.87-6.49,21.06-28.47,14.42-63.71,8.56-94.81-.72-3.84-1.47-7.81-2.14-11.62l.14-.02c.67,3.82,1.42,7.79,2.14,11.62,3.01,15.96,6.12,32.45,5.86,48.65-.29,18.38-5.01,33.52-14.44,46.27-1.58,2.18-3.26,4.37-4.87,6.49-8.96,11.73-17.42,22.8-16.15,37.62.94,9.61,4.35,18.73,7.65,27.56l.05.13-.13.05Z"/>
              <path class="cls-2" d="M7.34,159.93c-3.57-9.7-5.4-18.17-5.59-25.9-.24-9.63,2.15-18.29,7.09-25.75,1.93-2.86,3.89-5.66,5.79-8.37,8.65-12.34,16.82-23.99,20.54-39.17,6.58-26.89,1.7-52.93-3.86-77.31l.14-.03c2.74,12,5.42,24.94,6.5,38.26,1.16,14.28.3,27.07-2.65,39.11-3.73,15.21-11.9,26.88-20.56,39.22-1.9,2.71-3.87,5.51-5.79,8.37C-.02,121.89-.49,138.26,7.47,159.88l-.13.05Z"/>
              <path class="cls-2" d="M1.29,157.23c-2.64-9.51-3.91-17.86-3.87-25.54.05-9.34,2.1-17.79,6.12-25.12,1.85-3.27,3.75-6.52,5.58-9.67,9.42-16.21,18.32-31.52,23.22-50.01,5.25-19.02,1.23-37.93-2.66-56.21-.6-2.8-1.21-5.7-1.78-8.54l.14-.03c.57,2.84,1.18,5.73,1.78,8.53,3.89,18.3,7.91,37.22,2.66,56.27-4.9,18.51-13.81,33.82-23.24,50.04-1.83,3.15-3.72,6.4-5.58,9.67-7.27,13.27-8,29.81-2.23,50.55l-.14.04Z"/>
              <path class="cls-2" d="M-3.61,155.22c-9.45-32.25,5.44-61.39,19.85-89.58,3.27-6.41,6.66-13.03,9.65-19.51,8.76-18.73,4.05-39.4-.51-59.38-.44-1.95-.91-3.97-1.34-5.92l.14-.03c.43,1.96.89,3.97,1.34,5.92,2.24,9.82,4.56,19.97,5.22,30.04.75,11.41-.79,21.04-4.72,29.44-2.99,6.48-6.38,13.11-9.65,19.52C1.97,93.86-12.91,122.98-3.47,155.18l-.14.04Z"/>
              <path class="cls-2" d="M-7.62,153.92c-3.25-18.65-3.06-36.8.56-53.94,3.86-18.28,11.57-35.06,22.91-49.88C31.26,29.98,25.46,4.72,20.35-17.57c-.23-.99-.45-1.98-.68-2.96l.14-.03c.22.98.45,1.97.68,2.96,5.12,22.32,10.92,47.62-4.52,67.79C-6.16,79.09-14.27,114.95-7.48,153.9l-.14.02Z"/>
              <path class="cls-2" d="M-11.14,153.28c-.29-5.91-.84-12.01-1.36-17.92-2.11-23.66-4.29-48.12,8.27-69.91,2.51-4.48,5.57-8.56,8.53-12.49,4.56-6.07,8.87-11.81,11.37-18.95,6.14-17.87,3.06-36.61-.94-55.85l.14-.03c1.75,8.44,3.67,18.25,4.23,27.94.61,10.59-.47,19.74-3.3,27.98-2.5,7.17-6.82,12.91-11.39,18.99-2.96,3.93-6.01,8-8.52,12.48-12.54,21.76-10.36,46.19-8.25,69.83.53,5.91,1.07,12.02,1.36,17.93h-.14Z"/>
              <path class="cls-2" d="M-14.5,153.2c-.1-2.7-.14-5.42-.18-8.06-.11-6.76-.22-13.76-1.31-20.71l-.28-1.89c-2.73-18.47-5.55-37.57,1.61-55.19,2.51-6.17,6.47-11.57,10.3-16.79,3.13-4.27,6.37-8.69,8.84-13.53C14.85,16.69,12.09-6.97,9.1-23l.14-.03c2.99,16.05,5.76,39.75-4.64,60.13-2.47,4.86-5.71,9.28-8.85,13.55-3.83,5.22-7.78,10.61-10.29,16.76-7.14,17.58-4.33,36.66-1.6,55.11l.28,1.89c1.09,6.97,1.2,13.96,1.31,20.73.04,2.63.08,5.36.18,8.05h-.14Z"/>
            </g>
          </g>
        </g>
      </g>
    </g>
  </g>
</svg>