<?xml version="1.0" encoding="UTF-8"?>
<svg id="Capa_2" data-name="Capa 2" xmlns="http://www.w3.org/2000/svg" viewBox="0 0 56.21 49.66">
  <defs>
    <style>
      .cls-1 {
        fill: #cccbcb;
      }
    </style>
  </defs>
  <g id="Capa_1-2" data-name="Capa 1">
    <g>
      <polygon class="cls-1" points="29.81 0 28.93 0 26.34 2.21 23.74 0 22.86 0 26.34 2.96 29.81 0"/>
      <polygon class="cls-1" points="41.86 0 40.99 0 38.39 2.21 35.79 0 34.92 0 38.39 2.96 41.86 0"/>
      <polygon class="cls-1" points="17.76 0 16.88 0 14.28 2.21 12.94 1.07 12.65 1.57 14.28 2.96 17.76 0"/>
      <polygon class="cls-1" points="20.31 2.81 26.34 7.94 32.36 2.81 38.39 7.94 44.04 3.13 43.75 2.63 38.39 7.19 32.36 2.06 26.34 7.19 20.31 2.06 14.28 7.19 11.01 4.41 10.72 4.91 14.28 7.94 20.31 2.81"/>
      <polygon class="cls-1" points="20.31 6.55 26.34 11.68 32.36 6.55 38.39 11.68 44.42 6.55 47.54 9.2 46.69 7.74 44.42 5.8 38.39 10.93 32.36 5.8 26.34 10.93 20.31 5.8 14.28 10.93 9.57 6.91 9.28 7.41 14.28 11.68 20.31 6.55"/>
      <polygon class="cls-1" points="50.45 19.65 44.42 14.52 38.39 19.65 32.36 14.52 26.34 19.65 20.31 14.52 14.28 19.65 8.26 14.52 2.23 19.65 2.22 19.64 1.93 20.14 2.23 20.4 8.26 15.27 14.28 20.4 20.31 15.27 26.34 20.4 32.36 15.27 38.39 20.4 44.42 15.27 50.45 20.4 52.83 18.37 52.54 17.87 50.45 19.65"/>
      <polygon class="cls-1" points="14.28 16.66 20.31 11.53 26.34 16.66 32.36 11.53 38.39 16.66 44.42 11.53 50.45 16.66 51.39 15.86 51.1 15.36 50.45 15.92 44.42 10.78 38.39 15.91 32.36 10.78 26.34 15.91 20.31 10.78 14.28 15.91 8.26 10.78 6.44 12.33 5.59 13.8 8.26 11.53 14.28 16.66"/>
      <polygon class="cls-1" points="44.42 19.51 38.39 24.64 32.36 19.51 26.34 24.64 20.31 19.51 14.28 24.64 8.26 19.51 2.23 24.64 .29 22.98 0 23.48 2.23 25.38 8.26 20.25 14.28 25.38 20.31 20.25 26.34 25.38 32.36 20.25 38.39 25.38 44.42 20.25 50.45 25.38 54.76 21.71 54.47 21.21 50.45 24.64 44.42 19.51"/>
      <polygon class="cls-1" points="44.42 23.24 38.39 28.37 32.36 23.24 26.34 28.37 20.31 23.24 14.28 28.37 8.26 23.24 2.23 28.37 .34 26.76 1.19 28.23 2.23 29.12 8.26 23.99 14.28 29.12 20.31 23.99 26.34 29.12 32.36 23.99 38.39 29.12 44.42 23.99 50.45 29.12 56.21 24.22 55.92 23.72 50.45 28.37 44.42 23.24"/>
      <polygon class="cls-1" points="44.42 28.23 38.39 33.36 32.36 28.23 26.34 33.36 20.31 28.23 14.28 33.36 8.26 28.23 3.52 32.26 3.81 32.76 8.26 28.97 14.28 34.1 20.31 28.97 26.34 34.1 32.36 28.97 38.39 34.1 44.42 28.97 50.45 34.1 51.94 32.84 52.79 31.37 50.45 33.36 44.42 28.23"/>
      <polygon class="cls-1" points="38.39 37.09 32.36 31.96 26.34 37.09 20.31 31.96 14.28 37.09 8.26 31.96 4.96 34.77 5.25 35.27 8.26 32.71 14.28 37.84 20.31 32.71 26.34 37.84 32.36 32.71 38.39 37.84 44.42 32.71 49.51 37.04 49.8 36.54 44.42 31.96 38.39 37.09"/>
      <polygon class="cls-1" points="38.39 42.08 32.36 36.95 26.34 42.08 20.31 36.95 14.28 42.08 8.26 36.95 6.89 38.11 7.18 38.61 8.26 37.7 14.28 42.82 20.31 37.7 26.34 42.82 32.36 37.7 38.39 42.82 44.42 37.7 47.58 40.39 47.87 39.89 44.42 36.95 38.39 42.08"/>
      <polygon class="cls-1" points="38.39 45.81 32.36 40.69 26.34 45.81 20.31 40.69 14.28 45.81 8.49 40.89 9.34 42.35 14.28 46.56 20.31 41.43 26.34 46.56 32.36 41.43 38.39 46.56 44.42 41.43 46.13 42.89 46.42 42.39 44.42 40.68 38.39 45.81"/>
      <polygon class="cls-1" points="27.68 49.66 28.55 49.66 32.36 46.42 36.17 49.66 37.05 49.66 32.36 45.67 27.68 49.66"/>
      <polygon class="cls-1" points="39.73 49.66 40.61 49.66 43.79 46.95 44.49 45.73 44.42 45.67 39.73 49.66"/>
      <polygon class="cls-1" points="15.63 49.66 16.5 49.66 20.31 46.42 24.12 49.66 24.99 49.66 20.31 45.67 15.63 49.66"/>
    </g>
  </g>
</svg>