<?xml version="1.0" encoding="UTF-8"?>
<svg id="Capa_2" data-name="Capa 2" xmlns="http://www.w3.org/2000/svg" viewBox="0 0 61.09 55.26">
  <defs>
    <style>
      .cls-1 {
        fill: #cccbcb;
      }
    </style>
  </defs>
  <g id="Capa_1-2" data-name="Capa 1">
    <g>
      <path class="cls-1" d="M60.84,28.01c.5-.87.2-1.98-.66-2.48s-1.98-.2-2.48.66-.2,1.98.66,2.48,1.98.2,2.48-.66ZM57.04,34.6c.5-.87.2-1.98-.66-2.48s-1.98-.2-2.48.66-.2,1.98.66,2.48,1.98.2,2.48-.66ZM53.24,41.18c.5-.87.2-1.98-.66-2.48s-1.98-.2-2.48.66-.2,1.98.66,2.48,1.98.2,2.48-.66ZM49.43,47.77c.5-.87.2-1.98-.66-2.48s-1.98-.2-2.48.66-.2,1.98.66,2.48,1.98.2,2.48-.66ZM45.63,54.36c.5-.87.2-1.98-.66-2.48s-1.98-.2-2.48.66-.2,1.98.66,2.48,1.98.2,2.48-.66ZM52.87,27.85c.5-.87.2-1.98-.66-2.48s-1.98-.2-2.48.66-.2,1.98.66,2.48,1.98.2,2.48-.66ZM48.67,34.6c.5-.87.2-1.98-.66-2.48s-1.98-.2-2.48.66-.2,1.98.66,2.48,1.98.2,2.48-.66ZM45.29,41.05c.5-.87.2-1.98-.66-2.48s-1.98-.2-2.48.66-.2,1.98.66,2.48,1.98.2,2.48-.66ZM41.19,47.77c.5-.87.2-1.98-.66-2.48s-1.98-.2-2.48.66-.2,1.98.66,2.48,1.98.2,2.48-.66ZM44.4,28.09c.5-.87.2-1.98-.66-2.48s-1.98-.2-2.48.66-.2,1.98.66,2.48,1.98.2,2.48-.66ZM40.53,34.55c.5-.87.2-1.98-.66-2.48s-1.98-.2-2.48.66-.2,1.98.66,2.48,1.98.2,2.48-.66ZM36.82,41.27c.5-.87.2-1.98-.66-2.48s-1.98-.2-2.48.66-.2,1.98.66,2.48,1.98.2,2.48-.66ZM32.72,47.84c.5-.87.2-1.98-.66-2.48s-1.98-.2-2.48.66-.2,1.98.66,2.48,1.98.2,2.48-.66ZM36.03,28.09c.5-.87.2-1.98-.66-2.48s-1.98-.2-2.48.66-.2,1.98.66,2.48,1.98.2,2.48-.66ZM32.16,34.55c.5-.87.2-1.98-.66-2.48s-1.98-.2-2.48.66-.2,1.98.66,2.48,1.98.2,2.48-.66ZM28.45,41.3c.5-.87.2-1.98-.66-2.48s-1.98-.2-2.48.66-.2,1.98.66,2.48,1.98.2,2.48-.66ZM23.85,47.78c.5-.87.2-1.98-.66-2.48s-1.98-.2-2.48.66-.2,1.98.66,2.48,1.98.2,2.48-.66ZM27.93,28.01c.5-.87.2-1.98-.66-2.48s-1.98-.2-2.48.66-.2,1.98.66,2.48,1.98.2,2.48-.66ZM23.69,34.68c.5-.87.2-1.98-.66-2.48s-1.98-.2-2.48.66-.2,1.98.66,2.48,1.98.2,2.48-.66ZM20.31,41.24c.5-.87.2-1.98-.66-2.48s-1.98-.2-2.48.66-.2,1.98.66,2.48,1.98.2,2.48-.66ZM19.56,28.04c.5-.87.2-1.98-.66-2.48s-1.98-.2-2.48.66-.2,1.98.66,2.48,1.98.2,2.48-.66ZM15.32,34.6c.5-.87.2-1.98-.66-2.48s-1.98-.2-2.48.66-.2,1.98.66,2.48,1.98.2,2.48-.66ZM7.5,32.76c-.46-.89-1.55-1.24-2.44-.78s-1.24,1.55-.78,2.44,1.55,1.24,2.44.78,1.24-1.55.78-2.44ZM11.42,39.44c-.46-.89-1.55-1.24-2.44-.78s-1.24,1.55-.78,2.44,1.55,1.24,2.44.78,1.24-1.55.78-2.44ZM15.83,45.96c-.46-.89-1.55-1.24-2.44-.78s-1.24,1.55-.78,2.44,1.55,1.24,2.44.78,1.24-1.55.78-2.44ZM11.46,28.03c.5-.87.2-1.98-.66-2.48s-1.98-.2-2.48.66-.2,1.98.66,2.48,1.98.2,2.48-.66Z"/>
      <path class="cls-1" d="M37.26,54.36c.5-.87.2-1.98-.66-2.48s-1.98-.2-2.48.66-.2,1.98.66,2.48,1.98.2,2.48-.66Z"/>
      <path class="cls-1" d="M28.03,54.36c.5-.87.2-1.98-.66-2.48s-1.98-.2-2.48.66-.2,1.98.66,2.48,1.98.2,2.48-.66Z"/>
      <path class="cls-1" d="M19.73,54.36c.5-.87.2-1.98-.66-2.48s-1.98-.2-2.48.66-.2,1.98.66,2.48,1.98.2,2.48-.66Z"/>
      <path class="cls-1" d="M54.56,20c-.87.5-1.16,1.61-.66,2.48s1.61,1.16,2.48.66,1.16-1.61.66-2.48-1.61-1.16-2.48-.66Z"/>
      <circle class="cls-1" cx="51.67" cy="14.99" r="1.81" transform="translate(-.57 27.84) rotate(-30)"/>
      <path class="cls-1" d="M46.96,6.83c-.87.5-1.16,1.61-.66,2.48s1.61,1.16,2.48.66,1.16-1.61.66-2.48-1.61-1.16-2.48-.66Z"/>
      <path class="cls-1" d="M43.16.24c-.87.5-1.16,1.61-.66,2.48s1.61,1.16,2.48.66,1.16-1.61.66-2.48-1.61-1.16-2.48-.66Z"/>
      <path class="cls-1" d="M46.2,20c-.87.5-1.16,1.61-.66,2.48s1.61,1.16,2.48.66,1.16-1.61.66-2.48-1.61-1.16-2.48-.66Z"/>
      <path class="cls-1" d="M42.81,13.55c-.87.5-1.16,1.61-.66,2.48s1.61,1.16,2.48.66,1.16-1.61.66-2.48-1.61-1.16-2.48-.66Z"/>
      <path class="cls-1" d="M38.72,6.83c-.87.5-1.16,1.61-.66,2.48s1.61,1.16,2.48.66,1.16-1.61.66-2.48-1.61-1.16-2.48-.66Z"/>
      <path class="cls-1" d="M38.06,20.05c-.87.5-1.16,1.61-.66,2.48s1.61,1.16,2.48.66,1.16-1.61.66-2.48-1.61-1.16-2.48-.66Z"/>
      <path class="cls-1" d="M34.34,13.33c-.87.5-1.16,1.61-.66,2.48s1.61,1.16,2.48.66,1.16-1.61.66-2.48-1.61-1.16-2.48-.66Z"/>
      <path class="cls-1" d="M30.25,6.76c-.87.5-1.16,1.61-.66,2.48s1.61,1.16,2.48.66,1.16-1.61.66-2.48-1.61-1.16-2.48-.66Z"/>
      <circle class="cls-1" cx="30.6" cy="21.62" r="1.81"/>
      <path class="cls-1" d="M25.97,13.3c-.87.5-1.16,1.61-.66,2.48s1.61,1.16,2.48.66,1.16-1.61.66-2.48-1.61-1.16-2.48-.66Z"/>
      <path class="cls-1" d="M21.38,6.82c-.87.5-1.16,1.61-.66,2.48s1.61,1.16,2.48.66,1.16-1.61.66-2.48-1.61-1.16-2.48-.66Z"/>
      <path class="cls-1" d="M21.22,19.92c-.87.5-1.16,1.61-.66,2.48s1.61,1.16,2.48.66,1.16-1.61.66-2.48-1.61-1.16-2.48-.66Z"/>
      <path class="cls-1" d="M17.83,13.36c-.87.5-1.16,1.61-.66,2.48s1.61,1.16,2.48.66,1.16-1.61.66-2.48-1.61-1.16-2.48-.66Z"/>
      <path class="cls-1" d="M12.85,20c-.87.5-1.16,1.61-.66,2.48s1.61,1.16,2.48.66,1.16-1.61.66-2.48-1.61-1.16-2.48-.66Z"/>
      <g>
        <path class="cls-1" d="M6.73,20.06c-.89-.46-1.98-.11-2.44.78s-.11,1.98.78,2.44,1.98.11,2.44-.78.11-1.98-.78-2.44Z"/>
        <path class="cls-1" d="M10.64,13.38c-.89-.46-1.98-.11-2.44.78s-.11,1.98.78,2.44,1.98.11,2.44-.78.11-1.98-.78-2.44Z"/>
        <circle class="cls-1" cx="14.22" cy="8.47" r="1.81"/>
      </g>
      <path class="cls-1" d="M34.79.24c-.87.5-1.16,1.61-.66,2.48s1.61,1.16,2.48.66,1.16-1.61.66-2.48-1.61-1.16-2.48-.66Z"/>
      <path class="cls-1" d="M25.55.24c-.87.5-1.16,1.61-.66,2.48s1.61,1.16,2.48.66,1.16-1.61.66-2.48-1.61-1.16-2.48-.66Z"/>
      <path class="cls-1" d="M17.26.24c-.87.5-1.16,1.61-.66,2.48s1.61,1.16,2.48.66,1.16-1.61.66-2.48-1.61-1.16-2.48-.66Z"/>
      <path class="cls-1" d="M3.38,28.03c.5-.87.2-1.98-.66-2.48s-1.98-.2-2.48.66-.2,1.98.66,2.48,1.98.2,2.48-.66Z"/>
    </g>
  </g>
</svg>