<?xml version="1.0" encoding="UTF-8"?>
<svg id="Capa_2" data-name="Capa 2" xmlns="http://www.w3.org/2000/svg" viewBox="0 0 52.49 49.66">
  <defs>
    <style>
      .cls-1 {
        fill: #cccbcb;
      }
    </style>
  </defs>
  <g id="Capa_1-2" data-name="Capa 1">
    <g>
      <polygon class="cls-1" points="6.69 11.66 13.5 10.46 15.99 4 22.81 2.8 23.89 0 22.8 0 22.07 1.9 15.25 3.1 12.76 9.56 5.94 10.76 3.45 17.21 .67 17.7 0 18.86 4.2 18.12 6.69 11.66"/>
      <polygon class="cls-1" points="9.74 24.85 12.23 18.4 19.04 17.2 21.53 10.74 28.35 9.54 30.84 3.08 37.67 1.88 38.39 0 37.29 0 36.92 .97 30.1 2.17 27.61 8.63 20.79 9.83 18.3 16.29 11.48 17.49 8.99 23.95 2.18 25.15 0 30.79 .66 31.93 2.92 26.05 9.74 24.85"/>
      <polygon class="cls-1" points="8.46 32.79 15.28 31.59 17.77 25.13 24.59 23.93 27.08 17.47 33.9 16.27 36.39 9.81 43.21 8.61 43.74 7.23 43.08 6.1 42.46 7.7 35.64 8.91 33.15 15.37 26.33 16.57 23.84 23.03 17.02 24.23 14.53 30.68 7.72 31.88 5.23 38.34 4.44 38.48 4.98 39.42 5.97 39.24 8.46 32.79"/>
      <polygon class="cls-1" points="14 39.52 20.82 38.32 23.31 31.87 30.13 30.67 32.62 24.21 39.44 23.01 41.93 16.55 48.45 15.4 47.91 14.46 41.18 15.64 38.69 22.1 31.87 23.3 29.38 29.76 22.56 30.96 20.08 37.42 13.26 38.62 10.77 45.07 8.48 45.48 9.02 46.42 11.51 45.98 14 39.52"/>
      <polygon class="cls-1" points="26.36 45.06 28.85 38.6 35.67 37.4 38.16 30.94 44.98 29.74 47.47 23.28 52.49 22.4 51.95 21.45 46.72 22.38 44.23 28.84 37.41 30.04 34.92 36.5 28.11 37.69 25.62 44.15 18.8 45.35 17.14 49.66 18.23 49.66 19.55 46.26 26.36 45.06"/>
      <polygon class="cls-1" points="41.21 44.14 43.7 37.68 46.79 37.13 47.46 35.98 42.95 36.77 40.46 43.23 33.65 44.43 31.63 49.66 32.73 49.66 34.39 45.33 41.21 44.14"/>
    </g>
  </g>
</svg>