<svg width="138" height="44" viewBox="0 0 138 44" fill="none" xmlns="http://www.w3.org/2000/svg">
<path d="M18.1451 32.8535L19.0041 33.4027C19.6735 33.8312 20.5266 33.5958 20.959 32.9682C21.3737 32.3647 21.3026 31.4474 20.6628 30.9827L19.7624 30.325C19.6913 30.2706 19.638 30.0715 19.6617 29.981C19.6972 29.8784 19.9757 29.7939 20.0645 29.8603L22.4874 31.5681C23.145 32.0328 24.0395 31.8156 24.4779 31.1759C24.9163 30.5362 24.786 29.5947 24.1047 29.1119L22.8784 28.2429C22.7896 28.1826 22.7362 27.9593 22.7659 27.8688C22.8014 27.7662 23.068 27.6877 23.1687 27.7541L26.0122 29.7637C26.6224 30.1982 27.434 30.0715 27.9198 29.5163C28.3344 29.0395 28.4766 28.086 27.9079 27.6093C27.2207 27.0239 26.5098 26.5471 25.7753 25.998C25.6746 25.9256 25.6212 25.7083 25.6627 25.5997C25.6983 25.5031 25.9589 25.4307 26.0478 25.4971L29.5785 28.08C30.2834 28.599 31.2491 28.1645 31.6104 27.5127C32.0784 26.6678 31.7467 25.8652 31.0002 25.3402L18.6013 16.6078C18.2577 16.3664 17.8786 16.3181 17.529 16.5414L14.4367 18.5268C14.1879 18.6898 13.8265 18.7924 13.5362 18.7743L11.3799 18.6294C10.7579 18.5872 10.2662 18.1466 10.0944 17.6095C9.90482 17.0061 10.0766 16.3181 10.6216 15.9319L18.0859 10.591C18.3939 10.3738 18.7672 10.2652 19.1344 10.3014L23.7019 10.7359C24.0751 10.7721 24.4661 10.9169 24.7682 11.1221L26.9897 12.6851C27.7183 13.1981 28.6425 13.3188 29.4778 13.0351L30.5323 12.6731L30.0169 11.2247C29.9754 11.11 30.0287 10.8867 30.1235 10.8445C30.2597 10.7841 30.4849 10.8867 30.5441 11.0195L30.7218 11.448L34.9575 9.86685C35.2655 9.75219 35.5677 9.93927 35.6447 10.2712L38.4408 22.1658C38.506 22.4495 38.2986 22.6909 38.0795 22.7754L35.2004 23.8556L35.3248 24.3263C35.3544 24.4289 35.2833 24.6462 35.2004 24.6884C35.1174 24.7307 34.8686 24.6582 34.8272 24.5496L34.2822 23.0831C33.6068 23.3366 33.0144 23.8073 32.6294 24.3867C32.5701 24.4772 32.2976 24.4772 32.2265 24.4108C31.7585 23.9582 33.4943 22.6969 34.0867 22.5279L30.7337 13.2283L29.6792 13.5843C28.6484 13.9343 27.5347 13.7835 26.6342 13.1498L24.4601 11.6109C24.235 11.454 23.9092 11.3454 23.6248 11.3152L19.0278 10.8747C18.8086 10.8566 18.542 10.9712 18.3525 11.11L10.9711 16.3905C10.6453 16.6259 10.5328 17.0061 10.6098 17.3682C10.6868 17.7061 11.0008 18.038 11.3977 18.0682L13.5422 18.2191C13.6725 18.2311 13.9746 18.1648 14.0813 18.0984L17.2269 16.0767C17.7956 15.7086 18.4117 15.787 18.9626 16.1793L31.3201 24.8755C32.3924 25.6298 32.7656 26.9273 31.9659 28.0257C31.2431 29.0214 29.8391 29.1904 28.8498 28.2791C28.915 29.2628 28.4529 30.0413 27.7065 30.4094C26.889 30.8077 26.0418 30.6026 25.2954 29.9749C25.3902 30.9646 24.9696 31.7612 24.235 32.1595C23.4234 32.6001 22.5289 32.419 21.7706 31.7793C21.8417 32.6725 21.5277 33.4088 20.9057 33.8433C20.2422 34.3019 19.3773 34.3804 18.6961 33.9157L17.8845 33.3665C17.8193 33.3182 17.7956 33.107 17.7956 33.0286C17.7956 32.9501 18.0622 32.8294 18.1451 32.8837V32.8535Z" fill="white"/>
<path d="M15.5979 24.9239C16.445 25.4851 16.7886 26.4748 16.3443 27.4283C16.9308 27.38 17.3929 27.5551 17.8609 27.8749C18.7613 28.4844 19.0575 29.6612 18.4237 30.5906L17.0552 32.6002C16.4154 33.5416 15.2306 33.6804 14.342 33.0226C13.8148 32.6364 13.4356 32.1657 13.3942 31.4234C12.6537 31.7674 11.9843 31.6346 11.38 31.2182C10.8172 30.832 10.4618 30.319 10.4025 29.6009C9.66797 29.969 8.97486 29.8121 8.37653 29.3957C7.73674 28.9551 7.32798 28.3094 7.45831 27.4163C6.80075 27.5792 6.25574 27.4163 5.71073 27.0421C4.85174 26.4627 4.49038 25.3161 5.09463 24.4049L5.76997 23.385L5.31974 21.9487C5.10055 21.2486 4.54962 20.7779 3.96314 20.3917L3.21671 21.7013C3.1634 21.7918 2.93828 21.8582 2.84942 21.822C2.74279 21.7797 2.68948 21.5081 2.74279 21.4056L2.95606 20.9831L0.284325 19.4201C0.0769841 19.2994 -0.0770404 19.0278 0.0355159 18.7563L4.75696 7.50129C4.88136 7.20558 5.20126 7.05471 5.48561 7.21765L9.42509 9.51089L9.69759 9.07638C9.74498 8.99793 9.95232 8.94965 10.0412 8.97379C10.13 8.99793 10.2308 9.25743 10.1774 9.35398L9.39546 10.7722L10.29 11.267C11.1016 11.7136 12.0553 11.6895 12.8788 11.2912L15.1773 10.1808C15.5209 10.0178 16.5043 9.77039 16.5813 10.217C16.6583 10.6635 16.0896 10.3739 15.2543 10.7722L13.0387 11.8403C11.9902 12.3473 10.8409 12.2145 9.83384 11.6774L9.09926 11.2851L4.24749 19.9029C5.35528 20.5546 5.90029 21.5202 6.17872 22.7875L6.937 21.7194C7.57679 20.796 8.76159 20.6934 9.63243 21.3512C10.059 21.6711 10.3611 22.0151 10.5447 22.6246C11.2971 21.8401 12.3456 21.8521 13.1691 22.4798C13.8207 22.9746 14.1761 23.6626 13.9925 24.5678C14.6441 24.423 15.1181 24.604 15.6157 24.9359L15.5979 24.9239ZM7.97962 26.336L9.73313 23.7712C10.213 23.0712 9.96417 22.2685 9.31253 21.8099C8.69643 21.3754 7.86114 21.3392 7.38722 22.0211L5.5804 24.6644C5.10648 25.3523 5.42637 26.1489 6.06024 26.5895C6.69411 27.03 7.49978 27.0361 7.97962 26.33V26.336ZM10.6691 28.581L13.2046 24.8635C13.6845 24.1574 13.4475 23.3789 12.7959 22.9082C12.1442 22.4375 11.3089 22.4496 10.8172 23.1677L8.16919 27.0602C7.71304 27.7301 8.08626 28.5086 8.64904 28.9129C9.34215 29.4138 10.1478 29.3353 10.6632 28.587L10.6691 28.581ZM13.6608 30.3975L15.7282 27.3619C16.2199 26.6438 15.9534 25.8412 15.2721 25.3765C14.6264 24.9359 13.8207 24.9661 13.3468 25.6601L11.2201 28.7681C10.7461 29.4621 11.0009 30.2526 11.6288 30.7052C12.3219 31.2061 13.1394 31.1579 13.6548 30.3975H13.6608ZM16.6109 32.2562L17.9379 30.319C18.4355 29.5948 18.1986 28.7801 17.5054 28.3094C16.8657 27.8749 16.0541 27.893 15.5801 28.587L14.2058 30.5966C13.7318 31.2967 14.0044 32.0933 14.6441 32.5398C15.2839 32.9864 16.1133 32.9804 16.6109 32.2562Z" fill="white"/>
<path d="M14.6855 39.1903C14.6322 39.2808 14.3893 39.3231 14.3182 39.2929C14.2294 39.2567 14.1405 39.0153 14.1938 38.9308L15.2838 37.0721C15.3372 36.9876 15.5564 36.9333 15.6511 36.9574C15.7459 36.9816 15.8348 37.2471 15.7755 37.3436L14.6914 39.1903H14.6855Z" fill="#282828"/>
<path d="M24.2887 6.57802C24.2413 6.66854 24.0162 6.72889 23.9333 6.69872C23.8503 6.66855 23.7378 6.42112 23.7852 6.33663L24.7923 4.41755C24.8396 4.32099 25.0825 4.26668 25.1714 4.30892C25.2603 4.35117 25.3432 4.58049 25.2899 4.68308L24.2946 6.58406H24.2887V6.57802Z" fill="#282828"/>
<path d="M22.861 39.7455C22.9024 39.8542 22.8314 40.0714 22.7484 40.1137C22.6477 40.168 22.387 40.0895 22.3456 39.9749L21.5814 37.9894C21.5399 37.8868 21.6347 37.6756 21.7117 37.6334C21.8065 37.5911 22.0553 37.6635 22.0908 37.7661L22.861 39.7516V39.7455Z" fill="#282828"/>
<path d="M17.9438 5.90822C18.0031 6.04702 17.9201 6.30652 17.8194 6.34273C17.7187 6.37894 17.4936 6.28842 17.4462 6.18582L16.5931 4.25468C16.5517 4.15812 16.6228 3.92276 16.7175 3.88655C16.8123 3.85034 17.0552 3.91069 17.1026 4.01328L17.9438 5.90822Z" fill="#282828"/>
<path d="M59.2342 12.8902H53.5175L52.5104 15.5576H47.3506L53.9262 0.241211H58.9083L65.484 15.5637H60.2413L59.2342 12.8963V12.8902ZM57.8361 9.17277L56.3788 5.32254L54.9156 9.17277H57.8361Z" fill="white"/>
<path d="M68.7779 14.9906C67.7234 14.4656 66.8999 13.7293 66.3075 12.7818C65.7151 11.8344 65.4189 10.7602 65.4189 9.56528C65.4189 8.37038 65.7151 7.30221 66.3075 6.36078C66.8999 5.41934 67.7234 4.68913 68.7779 4.1641C69.8323 3.63907 71.0231 3.37354 72.356 3.37354C73.7896 3.37354 75.0099 3.68735 76.0289 4.31497C77.0478 4.94259 77.7468 5.81161 78.1319 6.92202L74.3701 8.80489C73.914 7.75483 73.2327 7.2298 72.3263 7.2298C71.7517 7.2298 71.2778 7.43498 70.8987 7.84535C70.5195 8.25572 70.33 8.82903 70.33 9.57131C70.33 10.3136 70.5195 10.9171 70.8987 11.3214C71.2778 11.7318 71.7576 11.937 72.3263 11.937C73.2268 11.937 73.9081 11.4119 74.3701 10.3619L78.1319 12.2447C77.7468 13.3552 77.0419 14.2242 76.0289 14.8518C75.0099 15.4794 73.7896 15.7932 72.356 15.7932C71.0231 15.7932 69.8323 15.5337 68.7779 15.0087V14.9906Z" fill="white"/>
<path d="M88.1257 15.1472C87.3971 15.5696 86.4018 15.7808 85.14 15.7808C83.4932 15.7808 82.2254 15.3765 81.3368 14.5678C80.4482 13.7592 80.0039 12.5462 80.0039 10.9228V7.85709H78.3926V4.24826H80.0039V0.898926H84.8616V4.24826H87.2668V7.85709H84.8616V10.8805C84.8616 11.2426 84.9564 11.5263 85.14 11.7315C85.3237 11.9366 85.5725 12.0392 85.8687 12.0392C86.2834 12.0392 86.6507 11.9306 86.9646 11.7134L88.1257 15.1472Z" fill="white"/>
<path d="M91.7272 14.9844C90.6905 14.4533 89.8789 13.7171 89.2865 12.7756C88.7 11.8342 88.4038 10.766 88.4038 9.57114C88.4038 8.37624 88.7 7.30807 89.2865 6.36664C89.873 5.4252 90.6846 4.69499 91.7272 4.16996C92.7639 3.64493 93.9368 3.37939 95.2401 3.37939C96.5434 3.37939 97.7341 3.64493 98.7768 4.16996C99.8135 4.69499 100.625 5.43124 101.206 6.36664C101.786 7.30807 102.076 8.37624 102.076 9.57114C102.076 10.766 101.786 11.8342 101.206 12.7756C100.625 13.7171 99.8135 14.4533 98.7768 14.9844C97.7401 15.5155 96.5612 15.781 95.2401 15.781C93.9191 15.781 92.7639 15.5155 91.7272 14.9844ZM96.6145 11.3031C96.9699 10.8867 97.1536 10.3074 97.1536 9.5651C97.1536 8.82282 96.9759 8.24347 96.6145 7.83914C96.2591 7.42877 95.797 7.22359 95.2401 7.22359C94.6833 7.22359 94.2212 7.42877 93.8658 7.83914C93.5103 8.24951 93.3267 8.82282 93.3267 9.5651C93.3267 10.3074 93.5044 10.8867 93.8658 11.3031C94.2212 11.7195 94.6833 11.9247 95.2401 11.9247C95.797 11.9247 96.2591 11.7195 96.6145 11.3031Z" fill="white"/>
<path d="M112.017 3.37354V7.74879C111.632 7.68844 111.271 7.6643 110.945 7.6643C109.28 7.6643 108.451 8.52729 108.451 10.2472V15.5639H103.593V3.59079H108.214V4.88224C109.073 3.87443 110.341 3.37354 112.017 3.37354Z" fill="white"/>
<path d="M125.725 10.7237H117.562C117.734 11.1763 118.018 11.5203 118.421 11.7616C118.824 12.003 119.321 12.1237 119.926 12.1237C120.441 12.1237 120.873 12.0574 121.223 11.9246C121.572 11.7918 121.957 11.5685 122.372 11.2427L124.908 13.8497C123.764 15.1351 122.052 15.7748 119.771 15.7748C118.356 15.7748 117.106 15.5093 116.033 14.9782C114.961 14.4471 114.126 13.7049 113.539 12.7574C112.953 11.8099 112.657 10.7418 112.657 9.55893C112.657 8.3761 112.947 7.29587 113.528 6.35443C114.108 5.413 114.902 4.68278 115.909 4.15775C116.916 3.63272 118.054 3.36719 119.315 3.36719C120.506 3.36719 121.59 3.60858 122.568 4.09137C123.551 4.57416 124.327 5.28023 124.908 6.21563C125.488 7.15103 125.778 8.26748 125.778 9.56497C125.778 9.63738 125.755 10.0236 125.713 10.7237H125.725ZM118.119 7.15707C117.787 7.43467 117.574 7.82693 117.473 8.33989H121.252C121.152 7.84504 120.939 7.45277 120.607 7.16914C120.275 6.8855 119.86 6.74066 119.363 6.74066C118.865 6.74066 118.445 6.87946 118.119 7.15707Z" fill="white"/>
<path d="M128.948 15.455C127.971 15.2377 127.189 14.9541 126.584 14.598L127.917 11.3392C128.462 11.6772 129.108 11.9367 129.849 12.1237C130.595 12.3169 131.318 12.4074 132.017 12.4074C132.574 12.4074 132.965 12.3591 133.19 12.2686C133.415 12.1781 133.522 12.0332 133.522 11.8401C133.522 11.647 133.379 11.5203 133.101 11.4478C132.822 11.3754 132.366 11.303 131.738 11.2306C130.779 11.1159 129.961 10.965 129.292 10.784C128.616 10.603 128.03 10.2469 127.52 9.72187C127.011 9.19684 126.756 8.44249 126.756 7.46484C126.756 6.69238 126.987 5.99838 127.443 5.38282C127.9 4.76727 128.587 4.27845 129.493 3.91636C130.405 3.55427 131.495 3.36719 132.769 3.36719C133.658 3.36719 134.529 3.45168 135.382 3.62065C136.235 3.78963 136.957 4.03102 137.562 4.3569L136.229 7.61571C135.198 7.03033 134.067 6.74066 132.834 6.74066C131.774 6.74066 131.247 6.93378 131.247 7.30794C131.247 7.50105 131.389 7.63382 131.679 7.71227C131.963 7.79072 132.42 7.86918 133.03 7.94159C133.989 8.06229 134.801 8.21316 135.47 8.40024C136.134 8.59336 136.726 8.94941 137.23 9.47444C137.733 9.99947 137.994 10.7538 137.994 11.7315C137.994 12.4738 137.763 13.1557 137.307 13.7652C136.851 14.3808 136.164 14.8696 135.245 15.2317C134.327 15.5938 133.219 15.7808 131.916 15.7808C130.915 15.7808 129.926 15.6722 128.954 15.455H128.948Z" fill="white"/>
<path d="M52.8185 40.7717H56.1655L55.6205 43.5176H47.3506L47.7771 41.339L52.0957 37.9595C52.546 37.5974 52.8599 37.2957 53.0317 37.0603C53.2035 36.8189 53.2924 36.5775 53.2924 36.3241C53.2924 36.0947 53.2035 35.9076 53.0317 35.7688C52.8599 35.63 52.6289 35.5576 52.3445 35.5576C52.0424 35.5576 51.7462 35.6481 51.4678 35.8232C51.1893 35.9982 50.9346 36.2456 50.7095 36.5654L48.3932 35.111C48.796 34.3989 49.3944 33.8317 50.1941 33.4092C50.9939 32.9868 51.8825 32.7695 52.8777 32.7695C53.636 32.7695 54.3172 32.9023 54.9274 33.1618C55.5376 33.4213 56.0115 33.7834 56.3551 34.236C56.6987 34.6946 56.8705 35.2076 56.8705 35.7749C56.8705 36.4447 56.6868 37.0663 56.3255 37.6396C55.9641 38.213 55.3243 38.8466 54.4061 39.5467L52.8125 40.7778L52.8185 40.7717Z" fill="#CE1126"/>
<path d="M71.8404 40.7712H75.1875L74.6425 43.5171H66.3726L66.7991 41.3385L71.1177 37.959C71.5679 37.5969 71.8819 37.2952 72.0537 37.0598C72.2255 36.8184 72.3143 36.577 72.3143 36.3236C72.3143 36.0942 72.2255 35.9072 72.0537 35.7684C71.8819 35.6296 71.6509 35.5571 71.3665 35.5571C71.0644 35.5571 70.7682 35.6477 70.4897 35.8227C70.2113 35.9977 69.9566 36.2451 69.7315 36.565L67.4152 35.1106C67.818 34.3984 68.4163 33.8312 69.2161 33.4087C70.0158 32.9863 70.9044 32.769 71.8997 32.769C72.6579 32.769 73.3392 32.9018 73.9494 33.1613C74.5596 33.4208 75.0335 33.7829 75.3771 34.2355C75.7207 34.6942 75.8925 35.2071 75.8925 35.7744C75.8925 36.4443 75.7088 37.0658 75.3474 37.6392C74.9861 38.2125 74.3463 38.8461 73.4281 39.5462L71.8345 40.7773H71.8404V40.7712Z" fill="#CE1126"/>
<path d="M83.5344 37.066C84.0261 37.3014 84.423 37.6514 84.7311 38.11C85.0332 38.5687 85.1872 39.1179 85.1872 39.7455C85.1872 40.5481 84.9917 41.2482 84.6067 41.8577C84.2157 42.4612 83.6825 42.9319 82.9894 43.2638C82.2963 43.5957 81.5203 43.7587 80.6435 43.7587C79.7667 43.7587 78.9966 43.5957 78.3331 43.2698C77.6696 42.944 77.1483 42.4612 76.781 41.8275C76.4078 41.1938 76.2183 40.4154 76.2183 39.492C76.2183 38.3997 76.4611 37.3376 76.9469 36.3056C77.4327 35.2737 78.1732 34.4288 79.1743 33.7589C80.1696 33.0951 81.4018 32.7632 82.865 32.7632C83.5107 32.7632 84.1268 32.8356 84.7074 32.9804C85.2879 33.1253 85.7559 33.3305 86.1054 33.59L84.5297 36.022C84.038 35.684 83.4159 35.509 82.6695 35.509C81.4195 35.509 80.5724 36.0884 80.1222 37.2531C80.6257 36.891 81.23 36.71 81.9468 36.71C82.5096 36.71 83.0309 36.8307 83.5226 37.066H83.5344ZM81.4432 40.9826C81.6624 40.7654 81.775 40.4697 81.775 40.1136C81.775 39.8239 81.6861 39.5946 81.5143 39.4196C81.3425 39.2506 81.1056 39.1661 80.7975 39.1661C80.4658 39.1661 80.1874 39.2748 79.9741 39.486C79.7608 39.6972 79.6483 39.9869 79.6483 40.3369C79.6483 40.6266 79.7371 40.8619 79.9089 41.043C80.0807 41.224 80.3177 41.3145 80.6257 41.3145C80.9516 41.3145 81.2241 41.2059 81.4432 40.9826Z" fill="#CE1126"/>
<path d="M59.5835 43.2698C58.9852 42.944 58.5172 42.4732 58.1914 41.8577C57.8597 41.2421 57.6997 40.5059 57.6997 39.6429C57.6997 38.3394 57.9426 37.1686 58.4224 36.1186C58.9023 35.0745 59.5717 34.2538 60.4188 33.6563C61.266 33.0589 62.2257 32.7632 63.2861 32.7632C64.0917 32.7632 64.7967 32.9261 65.395 33.252C65.9933 33.5779 66.4613 34.0486 66.7871 34.6642C67.1189 35.2797 67.2788 36.016 67.2788 36.8789C67.2788 38.1825 67.036 39.3532 66.5561 40.4033C66.0763 41.4533 65.4069 42.2741 64.5597 42.8655C63.7067 43.4629 62.7529 43.7587 61.6925 43.7587C60.8868 43.7587 60.1819 43.5957 59.5835 43.2698ZM63.0076 40.2584C63.2742 39.8179 63.4697 39.2868 63.606 38.6713C63.7363 38.0557 63.8074 37.4885 63.8074 36.9695C63.8074 36.0582 63.5171 35.6056 62.9365 35.6056C62.5633 35.6056 62.2434 35.8289 61.9768 36.2634C61.7103 36.7039 61.5148 37.235 61.3785 37.8506C61.2482 38.4661 61.1771 39.0334 61.1771 39.5524C61.1771 40.4636 61.4674 40.9162 62.0479 40.9162C62.4211 40.9162 62.741 40.699 63.0076 40.2584Z" fill="#CE1126"/>
<path d="M56.0115 27.9289V30.0471H47.3506V18.6533H55.8042V20.7715H49.9216V23.2458H55.117V25.2977H49.9216V27.9349H56.0115V27.9289Z" fill="white"/>
<path d="M57.8955 17.9653H60.3895V30.0471H57.8955V17.9653Z" fill="white"/>
<path d="M71.0823 26.3777H64.5777C64.6962 26.9208 64.9746 27.3493 65.4071 27.6631C65.8454 27.9769 66.3845 28.1338 67.0362 28.1338C67.4864 28.1338 67.8774 28.0675 68.2269 27.9287C68.5705 27.7959 68.8963 27.5786 69.1925 27.2829L70.5195 28.7494C69.7079 29.6908 68.529 30.1676 66.971 30.1676C65.9995 30.1676 65.1464 29.9745 64.4 29.5882C63.6536 29.202 63.0789 28.6709 62.6761 27.983C62.2733 27.301 62.0659 26.5225 62.0659 25.6535C62.0659 24.7845 62.2673 24.0241 62.6642 23.3362C63.0612 22.6482 63.6121 22.1111 64.3111 21.7249C65.0102 21.3386 65.7921 21.1455 66.6511 21.1455C67.5101 21.1455 68.2565 21.3326 68.9378 21.7007C69.619 22.0688 70.1522 22.5999 70.5432 23.2879C70.9342 23.9758 71.1237 24.7785 71.1237 25.6897C71.1237 25.7199 71.106 25.9492 71.0764 26.3717H71.0823V26.3777ZM65.2471 23.5655C64.8621 23.8914 64.631 24.3379 64.5422 24.8992H68.7778C68.6949 24.344 68.4579 23.9034 68.0729 23.5715C67.6878 23.2396 67.2198 23.0767 66.6689 23.0767C66.1179 23.0767 65.6322 23.2396 65.2471 23.5655Z" fill="white"/>
<path d="M74.4766 29.5943C73.7479 29.208 73.1792 28.677 72.7645 27.989C72.3558 27.3071 72.1484 26.5286 72.1484 25.6596C72.1484 24.7905 72.3558 24.0181 72.7645 23.3301C73.1733 22.6482 73.742 22.1111 74.4766 21.7249C75.2052 21.3386 76.0287 21.1455 76.9469 21.1455C77.8651 21.1455 78.6412 21.3386 79.3224 21.7249C79.9978 22.1111 80.4895 22.6603 80.8034 23.3784L78.8722 24.4345C78.422 23.6319 77.7822 23.2275 76.941 23.2275C76.2893 23.2275 75.7502 23.4448 75.3296 23.8793C74.909 24.3138 74.6898 24.9052 74.6898 25.6535C74.6898 26.4018 74.9031 26.9933 75.3296 27.4278C75.7562 27.8623 76.2953 28.0795 76.941 28.0795C77.794 28.0795 78.4397 27.6752 78.8722 26.8726L80.8034 27.9468C80.4954 28.6408 80.0037 29.1839 79.3224 29.5762C78.6471 29.9684 77.8533 30.1616 76.9469 30.1616C76.0405 30.1616 75.2052 29.9684 74.4766 29.5822V29.5943Z" fill="white"/>
<path d="M87.9066 29.6188C87.6638 29.8059 87.3616 29.9447 87.0062 30.0352C86.6508 30.1257 86.2716 30.174 85.8806 30.174C84.8558 30.174 84.0679 29.9084 83.5051 29.3774C82.9482 28.8463 82.6639 28.0618 82.6639 27.0359V23.4391H81.3369V21.4838H82.6639V19.3535H85.1579V21.4838H87.2965V23.4391H85.1579V27.0057C85.1579 27.3738 85.2527 27.6575 85.4363 27.8626C85.62 28.0618 85.8866 28.1644 86.2301 28.1644C86.6271 28.1644 86.9588 28.0558 87.2372 27.8385L87.9066 29.6308V29.6188Z" fill="white"/>
<path d="M90.6965 29.5943C89.9797 29.2081 89.4169 28.677 89.0081 27.989C88.6053 27.3071 88.3979 26.5286 88.3979 25.6596C88.3979 24.7905 88.5994 24.0181 89.0081 23.3301C89.411 22.6482 89.9737 22.1111 90.6965 21.7249C91.4133 21.3386 92.2249 21.1455 93.1312 21.1455C94.0376 21.1455 94.8492 21.3386 95.5601 21.7249C96.271 22.1111 96.8337 22.6421 97.2366 23.3301C97.6394 24.0121 97.8468 24.7905 97.8468 25.6596C97.8468 26.5286 97.6453 27.301 97.2366 27.989C96.8337 28.6709 96.271 29.2081 95.5601 29.5943C94.8433 29.9805 94.0376 30.1736 93.1312 30.1736C92.2249 30.1736 91.4133 29.9805 90.6965 29.5943ZM94.707 27.4278C95.1158 26.9872 95.3231 26.4019 95.3231 25.6596C95.3231 24.9173 95.1158 24.3319 94.707 23.8914C94.2983 23.4508 93.771 23.2336 93.1312 23.2336C92.4914 23.2336 91.9642 23.4508 91.5495 23.8914C91.1348 24.3319 90.9275 24.9173 90.9275 25.6596C90.9275 26.4019 91.1348 26.9872 91.5495 27.4278C91.9642 27.8683 92.4914 28.0856 93.1312 28.0856C93.771 28.0856 94.2923 27.8683 94.707 27.4278Z" fill="white"/>
<path d="M103.096 21.4777C103.599 21.2605 104.186 21.1519 104.843 21.1519V23.4934C104.565 23.4692 104.381 23.4632 104.287 23.4632C103.576 23.4632 103.013 23.6684 102.61 24.0727C102.207 24.4771 102 25.0926 102 25.9013V30.0351H99.5059V21.2786H101.887V22.4373C102.184 22.0148 102.586 21.695 103.096 21.4777Z" fill="white"/>
<path d="M112.823 22.1232C113.534 22.7689 113.895 23.7405 113.895 25.044V30.0409H111.561V28.9486C111.093 29.7633 110.216 30.1676 108.943 30.1676C108.279 30.1676 107.711 30.0529 107.225 29.8236C106.739 29.5943 106.372 29.2805 106.117 28.8822C105.862 28.4778 105.732 28.0252 105.732 27.5123C105.732 26.6976 106.034 26.0579 106.632 25.5932C107.237 25.1285 108.161 24.8931 109.423 24.8931H111.401C111.401 24.3379 111.235 23.9155 110.904 23.6138C110.572 23.318 110.08 23.1672 109.417 23.1672C108.961 23.1672 108.51 23.2396 108.066 23.3844C107.622 23.5293 107.248 23.7284 106.94 23.9758L106.046 22.2016C106.514 21.8637 107.077 21.6042 107.734 21.4231C108.392 21.236 109.061 21.1455 109.754 21.1455C111.087 21.1455 112.106 21.4714 112.823 22.1111V22.1232ZM110.696 28.164C111.028 27.9649 111.259 27.6692 111.401 27.2769V26.3837H109.689C108.664 26.3837 108.155 26.7277 108.155 27.4097C108.155 27.7355 108.279 27.995 108.528 28.1821C108.777 28.3692 109.12 28.4658 109.559 28.4658C109.997 28.4658 110.365 28.3632 110.696 28.164Z" fill="white"/>
<path d="M116.146 17.9653H118.64V30.0471H116.146V17.9653Z" fill="white"/>
<path d="M129.327 26.3777H122.822C122.941 26.9208 123.219 27.3493 123.652 27.6631C124.09 27.9769 124.629 28.1338 125.281 28.1338C125.731 28.1338 126.122 28.0675 126.472 27.9287C126.815 27.7959 127.141 27.5786 127.437 27.2829L128.764 28.7494C127.953 29.6908 126.774 30.1676 125.216 30.1676C124.244 30.1676 123.391 29.9745 122.645 29.5882C121.898 29.202 121.324 28.6709 120.921 27.983C120.518 27.301 120.311 26.5225 120.311 25.6535C120.311 24.7845 120.512 24.0241 120.909 23.3362C121.306 22.6482 121.857 22.1111 122.556 21.7249C123.255 21.3386 124.037 21.1455 124.896 21.1455C125.755 21.1455 126.501 21.3326 127.182 21.7007C127.864 22.0688 128.397 22.5999 128.788 23.2879C129.179 23.9758 129.368 24.7785 129.368 25.6897C129.368 25.7199 129.351 25.9492 129.321 26.3717H129.327V26.3777ZM123.498 23.5655C123.113 23.8914 122.882 24.3379 122.793 24.8992H127.028C126.945 24.344 126.708 23.9034 126.323 23.5715C125.938 23.2396 125.47 23.0767 124.919 23.0767C124.368 23.0767 123.883 23.2396 123.498 23.5655Z" fill="white"/>
<path d="M131.839 29.9024C131.158 29.7213 130.613 29.498 130.21 29.2265L131.039 27.4039C131.424 27.6514 131.886 27.8566 132.431 28.0135C132.976 28.1704 133.51 28.2488 134.031 28.2488C135.085 28.2488 135.613 27.9833 135.613 27.4522C135.613 27.2048 135.47 27.0238 135.18 26.9151C134.89 26.8065 134.452 26.716 133.853 26.6375C133.148 26.5289 132.568 26.4022 132.112 26.2634C131.655 26.1246 131.259 25.8711 130.921 25.515C130.583 25.159 130.417 24.646 130.417 23.9822C130.417 23.427 130.577 22.9382 130.891 22.5097C131.205 22.0812 131.661 21.7493 132.266 21.5079C132.87 21.2665 133.581 21.1519 134.398 21.1519C135.008 21.1519 135.613 21.2182 136.211 21.357C136.815 21.4898 137.313 21.6829 137.704 21.9183L136.874 23.7227C136.116 23.2882 135.293 23.0709 134.398 23.0709C133.865 23.0709 133.468 23.1494 133.202 23.3003C132.935 23.4511 132.805 23.6503 132.805 23.8856C132.805 24.1572 132.947 24.3443 133.237 24.4529C133.527 24.5615 133.984 24.6641 134.612 24.7607C135.316 24.8814 135.891 25.0081 136.335 25.1409C136.786 25.2797 137.171 25.5211 137.502 25.8832C137.834 26.2392 138 26.7401 138 27.3798C138 27.9229 137.84 28.4057 137.52 28.8282C137.2 29.2506 136.732 29.5825 136.122 29.8118C135.512 30.0472 134.783 30.1619 133.942 30.1619C133.225 30.1619 132.532 30.0713 131.851 29.8963H131.839V29.9024Z" fill="white"/>
<path d="M42.0486 0H40.4609V43.2758H42.0486V0Z" fill="#FCD116"/>
<path d="M42.0486 19.1304H40.4609V42.3826H42.0486V19.1304Z" fill="#003893"/>
<path d="M42.0486 33.2461H40.4609V44.0002H42.0486V33.2461Z" fill="#CE1126"/>
</svg>
