<?xml version="1.0" encoding="UTF-8"?>
<svg id="Capa_2" data-name="Capa 2" xmlns="http://www.w3.org/2000/svg" viewBox="0 0 1252.16 483.11">
  <defs>
    
  </defs>
  <g id="iconos">
    <g>
      <g id="colombia">
        <g>
          <g>
            <path class="cls-8" d="M571,13.66c0-7.26-5.9-13.16-13.16-13.16s-13.16,5.9-13.16,13.16,5.9,13.16,13.16,13.16,13.16-5.9,13.16-13.16Z"></path>
            <circle class="cls-7" cx="667.81" cy="13.16" r="13.16"></circle>
            <path class="cls-4" d="M625.75,13.16c0-7.26-5.9-13.16-13.16-13.16s-13.16,5.9-13.16,13.16,5.9,13.16,13.16,13.16,13.16-5.9,13.16-13.16Z"></path>
          </g>
          <g>
            <path class="cls-1" d="M40.59,283.97c0,14.29,3.8,25.73,11.42,34.27,7.62,8.54,17.56,12.82,29.84,12.82,7.62,0,14.42-1.78,20.4-5.35,5.98-3.57,10.6-8.77,13.87-15.61h14.58l-78.15-60.9c-.17.19-.36.34-.52.52-7.62,8.54-11.42,19.98-11.42,34.27l-.02-.02Z"></path>
            <path class="cls-1" d="M261.77,331.29c13.05,0,23.5-4.34,31.35-13.05,7.85-8.71,11.77-20.21,11.77-34.5,0-.86-.06-1.68-.08-2.52l-78.61,31.88c1.22,1.85,2.52,3.61,3.99,5.25,7.85,8.62,18.36,12.95,31.58,12.95Z"></path>
            <path class="cls-1" d="M524.58,318.34c1.64,1.8,3.42,3.36,5.29,4.78l-16.28-49.97c-.5,3.32-.78,6.84-.78,10.56,0,14.46,3.92,26,11.77,34.63h0Z"></path>
            <path class="cls-5" d="M116.11,310.08c-3.27,6.84-7.89,12.05-13.87,15.61-5.98,3.57-12.78,5.35-20.4,5.35-12.28,0-22.22-4.26-29.84-12.82-7.62-8.54-11.42-19.96-11.42-34.27s3.8-25.73,11.42-34.27c.17-.19.36-.36.52-.52l-30.74-23.94c-4.32,4.6-8.1,9.76-11.29,15.51-6.99,12.67-10.49,27.07-10.49,43.23s3.5,30.53,10.49,43.12c6.99,12.59,16.75,22.41,29.25,29.48s26.69,10.6,42.54,10.6c19.43,0,36.05-5.08,49.88-15.28,8.9-6.55,15.86-14.67,20.96-24.32l-22.47-17.5h-14.58l.04.02Z"></path>
            <path class="cls-8" d="M130.67,310.08l22.47,17.5c2.83-5.37,5.1-11.19,6.78-17.5h-29.25Z"></path>
            <path class="cls-8" d="M81.84,236.88c7.62,0,14.42,1.78,20.4,5.35,5.98,3.59,10.6,8.79,13.87,15.61h43.82c-4.66-17.71-13.91-31.71-27.74-41.95-13.83-10.26-30.45-15.38-49.88-15.38-15.84,0-30.03,3.55-42.54,10.62-6.82,3.86-12.8,8.56-17.96,14.08l30.74,23.94c7.55-8.16,17.31-12.28,29.32-12.28h-.02Z"></path>
            <path class="cls-5" d="M304.89,283.74c0,14.29-3.92,25.79-11.77,34.5-7.85,8.71-18.3,13.05-31.35,13.05s-23.73-4.32-31.58-12.95c-1.49-1.64-2.79-3.4-3.99-5.25l-36.64,14.86c7.47,12.34,17.44,22.01,29.92,28.98,12.82,7.16,26.92,10.72,42.31,10.72s29.44-3.57,42.2-10.72c12.74-7.16,22.83-17.12,30.3-29.95,7.45-12.82,11.19-27.24,11.19-43.23,0-6.36-.61-12.44-1.76-18.28l-38.86,15.76c.02.84.08,1.66.08,2.52l-.04-.02Z"></path>
            <path class="cls-8" d="M304.09,210.77c-12.82-7.13-26.92-10.72-42.31-10.72s-29.48,3.59-42.31,10.72c-12.82,7.16-23,17.1-30.53,29.84-7.53,12.74-11.31,27.11-11.31,43.12s3.76,30.41,11.31,43.23c.19.34.42.65.61.99l36.64-14.86c-5.16-7.89-7.79-17.65-7.79-29.36,0-14.61,3.92-26.19,11.77-34.73,7.85-8.54,18.36-12.82,31.58-12.82s23.5,4.32,31.35,12.95c7.39,8.12,11.25,18.82,11.69,32.09l38.86-15.76c-1.76-8.88-4.85-17.17-9.3-24.85-7.39-12.74-17.48-22.68-30.3-29.84h.02Z"></path>
            <polygon class="cls-5" points="367.6 366.02 459.68 366.02 459.68 335.26 407.47 335.26 407.47 239.61 367.6 255.77 367.6 366.02"></polygon>
            <polygon class="cls-8" points="367.6 202.38 367.6 255.77 407.47 239.61 407.47 202.38 367.6 202.38"></polygon>
            <path class="cls-6" d="M533.59,334.54l-3.71-11.39c-1.87-1.43-3.65-2.98-5.29-4.78-7.85-8.62-11.77-20.17-11.77-34.63,0-3.71.25-7.24.78-10.56l-16.35-50.13c-5.35,5.12-9.99,10.95-13.91,17.59-7.53,12.74-11.31,27.11-11.31,43.12s3.76,30.41,11.31,43.23c7.53,12.82,17.71,22.81,30.53,29.95,12.82,7.16,26.92,10.72,42.31,10.72,12.4,0,23.92-2.37,34.6-7.01l-36.81-7.79c-9.59-2.04-17.35-9-20.4-18.32h.02Z"></path>
            <path class="cls-4" d="M628.67,326.97c7.45-12.82,11.19-27.24,11.19-43.23s-3.69-30.39-11.06-43.12c-7.39-12.74-17.48-22.68-30.3-29.84-12.82-7.13-26.92-10.72-42.31-10.72s-29.48,3.59-42.31,10.72c-6.15,3.44-11.69,7.53-16.62,12.26l16.35,50.13c1.49-9.74,5.14-17.8,11-24.17,7.85-8.54,18.36-12.82,31.58-12.82s23.5,4.32,31.35,12.95c7.85,8.62,11.77,20.17,11.77,34.6s-3.92,25.79-11.77,34.5c-7.85,8.71-18.3,13.05-31.35,13.05-10.45,0-19.2-2.75-26.29-8.14l3.71,11.39c3.04,9.32,10.81,16.28,20.4,18.32l36.81,7.79c2.58-1.11,5.12-2.33,7.58-3.71,12.74-7.16,22.83-17.12,30.3-29.95h-.02Z"></path>
            <polygon class="cls-4" points="755 315.68 709.06 202.38 661.99 202.38 661.99 366.02 701.84 366.02 701.84 267.64 738.67 366.02 770.84 366.02 807.44 267.9 807.44 366.02 847.29 366.02 847.29 202.38 800.45 202.38 755 315.68"></polygon>
            <path class="cls-3" d="M983.72,359.54c3.08-1.55,5.92-3.38,8.46-5.52,3.04-2.54,5.54-5.41,7.62-8.52l-2.01-1.57-14.04,15.61h-.02Z"></path>
            <path class="cls-4" d="M965.92,319.12c-.55,4.28-2.25,7.72-5.23,10.2-3.65,3.04-8.81,4.55-15.51,4.55h-29.38v-36.14h28.9c1.03,0,1.97.1,2.92.19-.97-3.53-1.24-7.24-.71-10.95l2.69-19.24c-2.29.57-4.81.88-7.7.88h-26.11v-34.27h26.11c4.83,0,8.83.82,12,2.43l4.72-33.91c-2.9-.27-5.88-.46-9.02-.46h-73.66v163.62h76.22c12.55,0,23.04-2.18,31.52-6.48l14.04-15.61-31.83-24.8h.04Z"></path>
            <path class="cls-3" d="M997.75,343.92l2.01,1.57c1.76-2.64,3.17-5.5,4.24-8.54l-6.25,6.97h0Z"></path>
            <path class="cls-7" d="M997.86,296.2c-5.75-7.37-13.37-12.07-22.83-14.1,8.39-2.48,15.11-6.93,20.17-13.28,5.06-6.36,7.58-14.37,7.58-24.01,0-13.05-4.7-23.38-14.1-30.99-7.62-6.17-17.65-9.8-30.01-10.98l-4.72,33.91c1.11.57,2.12,1.22,3.04,1.99,3.5,2.96,5.25,7.22,5.25,12.82s-1.74,9.84-5.25,12.7c-1.95,1.62-4.45,2.73-7.34,3.42l-2.69,19.24c-.52,3.74-.25,7.45.71,10.95,5.27.42,9.59,1.95,12.8,4.7,3.8,3.27,5.71,7.76,5.71,13.51,0,1.05-.13,2.01-.25,2.98l31.83,24.8,6.25-6.97c1.62-4.68,2.48-9.8,2.48-15.44,0-9.49-2.87-17.9-8.62-25.29v.02Z"></path>
            <polygon class="cls-7" points="1029.57 202.38 1029.57 308.5 1029.57 366.02 1069.42 366.02 1069.42 264.14 1069.42 202.38 1029.57 202.38"></polygon>
            <path class="cls-7" d="M1146.81,202.38l-59.2,163.62h41.72l9.78-28.9h61.07l9.78,28.9h42.2l-59.2-163.62h-46.15,0ZM1149.6,306.34l20.04-59.91,20.27,59.91h-40.33.02Z"></path>
          </g>
          <g>
            <path class="cls-4" d="M157.05,86.96c1.83,1.8,2.75,4.03,2.75,6.72s-.92,4.91-2.75,6.72c-1.85,1.8-4.18,2.69-6.99,2.69s-5.29-.9-7.18-2.69-2.81-4.03-2.81-6.72.94-4.91,2.81-6.72c1.87-1.78,4.26-2.69,7.18-2.69s5.16.9,6.99,2.69ZM142.95,111.09h13.54l1.85,55.38h-17.31l1.95-55.38h-.02Z"></path>
            <path class="cls-4" d="M193.96,69.48v49.52c0,5.44,1.41,9.57,4.24,12.44,2.83,2.87,6.8,4.3,11.92,4.3s9.21-1.43,12.05-4.3,4.24-7.01,4.24-12.44v-49.52h16.16v49.42c0,6.8-1.47,12.55-4.41,17.25s-6.88,8.23-11.81,10.6c-4.93,2.37-10.41,3.55-16.45,3.55s-11.37-1.18-16.22-3.55c-4.85-2.37-8.69-5.9-11.52-10.6-2.83-4.7-4.24-10.45-4.24-17.25v-49.42h16.05Z"></path>
            <path class="cls-4" d="M311.61,92.23c4.66,4.78,6.99,11.44,6.99,20v37.25h-16.05v-35.09c0-5.04-1.26-8.92-3.78-11.65-2.52-2.71-5.96-4.07-10.32-4.07s-7.93,1.36-10.49,4.07c-2.56,2.71-3.84,6.59-3.84,11.65v35.09h-16.05v-63.52h16.05v7.91c2.14-2.75,4.87-4.91,8.21-6.48,3.32-1.57,6.97-2.35,10.95-2.35,7.58,0,13.68,2.39,18.34,7.18v.02Z"></path>
            <path class="cls-4" d="M371.44,147.71c-4.13-1.87-7.39-4.41-9.8-7.62-2.41-3.21-3.74-6.76-3.95-10.66h16.16c.29,2.46,1.51,4.47,3.61,6.09,2.1,1.59,4.72,2.41,7.85,2.41s5.44-.61,7.16-1.83c1.72-1.22,2.58-2.79,2.58-4.7,0-2.06-1.05-3.61-3.15-4.64-2.1-1.03-5.46-2.16-10.03-3.38-4.74-1.15-8.62-2.33-11.65-3.55-3.02-1.22-5.62-3.11-7.79-5.62-2.18-2.52-3.27-5.92-3.27-10.2,0-3.5,1.01-6.74,3.04-9.63,2.04-2.9,4.93-5.2,8.71-6.88,3.78-1.68,8.23-2.52,13.37-2.52,7.58,0,13.6,1.89,18.11,5.69,4.51,3.78,6.99,8.88,7.45,15.3h-15.36c-.23-2.52-1.28-4.53-3.15-6.02s-4.39-2.25-7.51-2.25c-2.9,0-5.14.52-6.72,1.59-1.57,1.07-2.35,2.56-2.35,4.47,0,2.14,1.07,3.76,3.21,4.87s5.46,2.22,9.97,3.38c4.6,1.15,8.37,2.33,11.35,3.55,2.98,1.22,5.56,3.11,7.74,5.67,2.18,2.56,3.32,5.94,3.38,10.14,0,3.67-1.01,6.95-3.04,9.86-2.01,2.9-4.93,5.18-8.71,6.82-3.78,1.64-8.21,2.46-13.24,2.46s-9.86-.94-14-2.81l.02.02Z"></path>
            <path class="cls-4" d="M435.29,146.45c-4.89-2.71-8.73-6.55-11.52-11.52-2.79-4.97-4.18-10.7-4.18-17.19s1.43-12.23,4.3-17.19c2.87-4.97,6.78-8.81,11.75-11.52,4.97-2.71,10.51-4.07,16.62-4.07s11.65,1.36,16.62,4.07c4.97,2.71,8.88,6.55,11.75,11.52,2.87,4.97,4.3,10.7,4.3,17.19s-1.47,12.23-4.41,17.19c-2.94,4.97-6.9,8.81-11.92,11.52-4.99,2.71-10.6,4.07-16.79,4.07s-11.63-1.36-16.52-4.07h-.02ZM460.01,134.41c2.56-1.41,4.6-3.53,6.13-6.36,1.53-2.83,2.29-6.27,2.29-10.32,0-6.04-1.59-10.68-4.76-13.93-3.17-3.25-7.05-4.87-11.63-4.87s-8.44,1.62-11.52,4.87c-3.11,3.25-4.64,7.89-4.64,13.93s1.51,10.68,4.53,13.93c3.02,3.25,6.82,4.87,11.42,4.87,2.9,0,5.64-.71,8.21-2.12h-.02Z"></path>
            <path class="cls-4" d="M512.79,64.65v84.84h-16.05v-84.84h16.05Z"></path>
            <path class="cls-4" d="M540.3,146.45c-4.89-2.71-8.73-6.55-11.52-11.52-2.79-4.97-4.18-10.7-4.18-17.19s1.43-12.23,4.3-17.19c2.87-4.95,6.78-8.81,11.75-11.52,4.97-2.71,10.51-4.07,16.62-4.07s11.65,1.36,16.62,4.07c4.97,2.71,8.88,6.55,11.75,11.52,2.87,4.97,4.3,10.7,4.3,17.19s-1.47,12.23-4.41,17.19c-2.94,4.97-6.93,8.81-11.92,11.52-5.02,2.71-10.6,4.07-16.79,4.07s-11.63-1.36-16.52-4.07h-.02ZM565.02,134.41c2.56-1.41,4.6-3.53,6.13-6.36,1.53-2.83,2.29-6.27,2.29-10.32,0-6.04-1.59-10.68-4.76-13.93-3.17-3.25-7.05-4.87-11.63-4.87s-8.44,1.62-11.52,4.87-4.64,7.89-4.64,13.93,1.51,10.68,4.53,13.93c3.02,3.25,6.82,4.87,11.42,4.87,2.9,0,5.64-.71,8.21-2.12h-.02Z"></path>
            <path class="cls-4" d="M687.62,122.55h-46.44c.38,4.57,1.99,8.18,4.81,10.77,2.83,2.6,6.3,3.9,10.43,3.9,5.96,0,10.2-2.56,12.72-7.68h17.31c-1.85,6.11-5.35,11.14-10.56,15.07-5.2,3.95-11.58,5.9-19.14,5.9-6.11,0-11.6-1.36-16.45-4.07s-8.65-6.55-11.35-11.52c-2.71-4.97-4.07-10.7-4.07-17.19s1.34-12.34,4.01-17.31c2.67-4.97,6.42-8.79,11.23-11.46s10.37-4.01,16.62-4.01,11.46,1.3,16.22,3.9c4.78,2.6,8.48,6.3,11.12,11.06,2.64,4.78,3.95,10.26,3.95,16.45,0,2.29-.15,4.36-.46,6.19h.06ZM671.46,111.77c-.08-4.13-1.57-7.43-4.47-9.93-2.9-2.48-6.46-3.74-10.66-3.74-3.97,0-7.32,1.2-10.03,3.61s-4.39,5.75-4.99,10.03h30.16v.02Z"></path>
            <path class="cls-4" d="M699.6,100.71c2.64-4.93,6.21-8.77,10.72-11.52,4.51-2.75,9.49-4.13,14.9-4.13,4.51,0,8.5.86,11.98,2.58s6.27,3.92,8.44,6.59v-8.25h16.16v93.78h-16.16v-38.99c-2.14,2.75-5.02,5.04-8.6,6.88-3.59,1.83-7.64,2.75-12.15,2.75-5.35,0-10.26-1.41-14.73-4.18-4.47-2.77-8.02-6.67-10.6-11.65-2.6-4.97-3.9-10.62-3.9-16.96s1.32-11.98,3.95-16.91h0ZM743.23,107.65c-1.59-2.83-3.69-4.97-6.25-6.42-2.56-1.45-5.29-2.18-8.21-2.18s-5.52.73-8.08,2.18c-2.56,1.45-4.64,3.57-6.25,6.36-1.62,2.79-2.41,6.13-2.41,10.03s.8,7.28,2.41,10.14c1.59,2.87,3.69,5.04,6.25,6.48s5.25,2.18,8.08,2.18,5.64-.73,8.21-2.18c2.56-1.45,4.64-3.59,6.25-6.42,1.62-2.83,2.41-6.19,2.41-10.09s-.8-7.26-2.41-10.09v.02Z"></path>
            <path class="cls-4" d="M837.47,85.98v63.52h-16.16v-8.02c-2.06,2.75-4.76,4.91-8.08,6.48s-6.93,2.35-10.83,2.35c-4.97,0-9.36-1.05-13.18-3.15-3.82-2.1-6.82-5.2-9-9.28-2.18-4.09-3.27-8.96-3.27-14.63v-37.25h16.05v34.96c0,5.04,1.26,8.92,3.78,11.63,2.52,2.71,5.96,4.07,10.32,4.07s7.91-1.36,10.43-4.07c2.52-2.71,3.78-6.59,3.78-11.63v-34.96h16.16v-.04Z"></path>
            <path class="cls-4" d="M854.36,75.71c-1.87-1.8-2.81-4.03-2.81-6.72s.94-4.91,2.81-6.72,4.22-2.69,7.05-2.69,5.18.9,7.05,2.69,2.81,4.03,2.81,6.72-.94,4.91-2.81,6.72c-1.87,1.8-4.22,2.69-7.05,2.69s-5.18-.9-7.05-2.69ZM869.33,85.98v63.52h-16.05v-63.52h16.05Z"></path>
            <path class="cls-4" d="M909.74,87.86c3.63-1.95,7.79-2.92,12.44-2.92,5.44,0,10.35,1.34,14.73,4.01,4.39,2.69,7.87,6.48,10.43,11.42,2.56,4.93,3.84,10.64,3.84,17.14s-1.28,12.26-3.84,17.25c-2.56,5.02-6.04,8.88-10.43,11.65-4.39,2.75-9.3,4.13-14.73,4.13-4.66,0-8.77-.97-12.32-2.87-3.55-1.91-6.44-4.32-8.65-7.22v39.33h-16.05v-93.78h16.05v9.17c2.06-2.9,4.91-5.33,8.54-7.28l-.02-.02ZM932.45,107.59c-1.57-2.79-3.63-4.91-6.19-6.36s-5.33-2.18-8.31-2.18-5.64.76-8.21,2.25c-2.56,1.49-4.62,3.65-6.19,6.48-1.57,2.83-2.35,6.15-2.35,9.97s.78,7.16,2.35,9.97c1.57,2.83,3.63,4.99,6.19,6.48,2.56,1.49,5.29,2.25,8.21,2.25s5.75-.76,8.31-2.29c2.56-1.53,4.62-3.71,6.19-6.53,1.57-2.83,2.35-6.19,2.35-10.09s-.8-7.13-2.35-9.93v-.02Z"></path>
            <path class="cls-4" d="M974.57,146.45c-4.89-2.71-8.73-6.55-11.52-11.52-2.79-4.97-4.18-10.7-4.18-17.19s1.43-12.23,4.3-17.19c2.87-4.97,6.78-8.81,11.75-11.52,4.97-2.71,10.51-4.07,16.62-4.07s11.65,1.36,16.62,4.07c4.97,2.71,8.88,6.55,11.75,11.52,2.87,4.97,4.3,10.7,4.3,17.19s-1.47,12.23-4.41,17.19c-2.94,4.97-6.9,8.81-11.92,11.52-4.99,2.71-10.6,4.07-16.79,4.07s-11.63-1.36-16.52-4.07h-.02ZM999.29,134.41c2.56-1.41,4.6-3.53,6.13-6.36,1.53-2.83,2.29-6.27,2.29-10.32,0-6.04-1.59-10.68-4.76-13.93-3.17-3.25-7.05-4.87-11.63-4.87s-8.44,1.62-11.52,4.87c-3.11,3.25-4.64,7.89-4.64,13.93s1.51,10.68,4.53,13.93c3.02,3.25,6.82,4.87,11.42,4.87,2.9,0,5.64-.71,8.21-2.12h-.02Z"></path>
            <path class="cls-4" d="M1041.36,147.61c-1.87-1.8-2.81-4.03-2.81-6.72s.94-4.91,2.81-6.72,4.26-2.69,7.18-2.69,5.16.9,6.99,2.69c1.83,1.8,2.75,4.03,2.75,6.72s-.92,4.91-2.75,6.72c-1.85,1.8-4.18,2.69-6.99,2.69s-5.29-.9-7.18-2.69ZM1056.76,68.1l-1.85,55.38h-13.54l-1.95-55.38h17.33Z"></path>
          </g>
        </g>
      </g>
      <g>
        <path class="cls-2" d="M68.91,418.52v63.55h-16.18v-8.03c-2.06,2.75-4.76,4.92-8.09,6.48-3.33,1.57-6.94,2.35-10.84,2.35-4.97,0-9.37-1.05-13.19-3.15-3.83-2.1-6.83-5.2-9.01-9.29-2.18-4.09-3.27-8.97-3.27-14.63v-37.28h16.06v34.99c0,5.05,1.26,8.93,3.79,11.64,2.52,2.71,5.97,4.07,10.33,4.07s7.92-1.36,10.44-4.07c2.52-2.71,3.79-6.6,3.79-11.64v-34.99h16.18Z"></path>
        <path class="cls-2" d="M138.21,424.77c4.66,4.78,7,11.45,7,20.02v37.28h-16.06v-35.1c0-5.05-1.26-8.93-3.79-11.64-2.52-2.71-5.97-4.07-10.33-4.07s-7.94,1.36-10.5,4.07c-2.56,2.72-3.84,6.6-3.84,11.64v35.1h-16.06v-63.55h16.06v7.92c2.14-2.75,4.88-4.91,8.2-6.48,3.33-1.57,6.98-2.35,10.96-2.35,7.57,0,13.69,2.39,18.36,7.17Z"></path>
        <path class="cls-2" d="M161.44,408.25c-1.88-1.8-2.81-4.03-2.81-6.71s.94-4.91,2.81-6.71c1.87-1.8,4.23-2.7,7.06-2.7s5.18.9,7.06,2.7c1.87,1.8,2.81,4.04,2.81,6.71s-.94,4.92-2.81,6.71c-1.88,1.8-4.23,2.7-7.06,2.7s-5.18-.9-7.06-2.7ZM176.41,418.52v63.55h-16.06v-63.55h16.06Z"></path>
        <path class="cls-2" d="M191.84,432.98c2.56-4.97,6.06-8.79,10.5-11.47,4.43-2.68,9.37-4.02,14.8-4.02,4.13,0,8.07.9,11.82,2.7,3.75,1.8,6.73,4.19,8.95,7.17v-30.17h16.29v84.89h-16.29v-9.41c-1.99,3.14-4.78,5.66-8.37,7.57-3.6,1.91-7.76,2.87-12.5,2.87-5.35,0-10.25-1.38-14.68-4.13-4.44-2.75-7.94-6.63-10.5-11.64-2.56-5.01-3.84-10.76-3.84-17.27s1.28-12.12,3.84-17.09ZM235.72,440.26c-1.53-2.79-3.6-4.93-6.19-6.42-2.6-1.49-5.39-2.24-8.37-2.24s-5.74.73-8.26,2.18c-2.52,1.45-4.57,3.58-6.14,6.37-1.57,2.79-2.35,6.1-2.35,9.92s.78,7.17,2.35,10.04c1.57,2.87,3.63,5.07,6.19,6.6,2.56,1.53,5.3,2.29,8.2,2.29s5.77-.75,8.37-2.24c2.6-1.49,4.66-3.63,6.19-6.42,1.53-2.79,2.29-6.14,2.29-10.04s-.77-7.25-2.29-10.04Z"></path>
        <path class="cls-2" d="M269.5,432.98c2.56-4.97,6.04-8.79,10.44-11.47,4.4-2.68,9.31-4.02,14.74-4.02,4.74,0,8.89.96,12.45,2.87,3.56,1.91,6.4,4.32,8.55,7.23v-9.06h16.18v63.55h-16.18v-9.29c-2.06,2.98-4.92,5.45-8.55,7.4-3.63,1.95-7.82,2.92-12.56,2.92-5.35,0-10.23-1.38-14.63-4.13-4.4-2.75-7.88-6.63-10.44-11.64-2.56-5.01-3.84-10.76-3.84-17.27s1.28-12.12,3.84-17.09ZM313.38,440.26c-1.53-2.79-3.6-4.93-6.19-6.42-2.6-1.49-5.39-2.24-8.37-2.24s-5.74.73-8.26,2.18c-2.52,1.45-4.57,3.58-6.14,6.37-1.57,2.79-2.35,6.1-2.35,9.92s.78,7.17,2.35,10.04c1.57,2.87,3.63,5.07,6.19,6.6,2.56,1.53,5.3,2.29,8.2,2.29s5.77-.75,8.37-2.24c2.6-1.49,4.66-3.63,6.19-6.42,1.53-2.79,2.29-6.14,2.29-10.04s-.77-7.25-2.29-10.04Z"></path>
        <path class="cls-2" d="M433.26,455.12h-46.46c.38,4.59,1.99,8.18,4.82,10.78,2.83,2.6,6.31,3.9,10.44,3.9,5.97,0,10.21-2.56,12.73-7.69h17.32c-1.84,6.12-5.35,11.15-10.55,15.08-5.2,3.94-11.59,5.91-19.16,5.91-6.12,0-11.61-1.36-16.46-4.07-4.86-2.71-8.64-6.56-11.36-11.53-2.72-4.97-4.07-10.71-4.07-17.21s1.34-12.35,4.02-17.32c2.68-4.97,6.42-8.79,11.24-11.47,4.82-2.68,10.36-4.02,16.63-4.02s11.45,1.3,16.23,3.9c4.78,2.6,8.49,6.29,11.13,11.07,2.64,4.78,3.96,10.27,3.96,16.46,0,2.29-.15,4.36-.46,6.2ZM417.09,444.33c-.08-4.13-1.57-7.44-4.47-9.92-2.91-2.48-6.46-3.73-10.67-3.73-3.98,0-7.32,1.2-10.04,3.61-2.72,2.41-4.38,5.76-4.99,10.04h30.17Z"></path>
        <path class="cls-2" d="M498.88,424.77c4.66,4.78,7,11.45,7,20.02v37.28h-16.06v-35.1c0-5.05-1.26-8.93-3.79-11.64-2.52-2.71-5.97-4.07-10.33-4.07s-7.94,1.36-10.5,4.07c-2.56,2.72-3.84,6.6-3.84,11.64v35.1h-16.06v-63.55h16.06v7.92c2.14-2.75,4.88-4.91,8.2-6.48,3.33-1.57,6.98-2.35,10.96-2.35,7.57,0,13.69,2.39,18.36,7.17Z"></path>
        <path class="cls-2" d="M547.92,432.98c2.56-4.97,6.06-8.79,10.5-11.47,4.43-2.68,9.37-4.02,14.8-4.02,4.13,0,8.07.9,11.82,2.7,3.75,1.8,6.73,4.19,8.95,7.17v-30.17h16.29v84.89h-16.29v-9.41c-1.99,3.14-4.78,5.66-8.37,7.57-3.6,1.91-7.76,2.87-12.5,2.87-5.35,0-10.25-1.38-14.68-4.13-4.44-2.75-7.94-6.63-10.5-11.64-2.56-5.01-3.84-10.76-3.84-17.27s1.28-12.12,3.84-17.09ZM591.8,440.26c-1.53-2.79-3.6-4.93-6.19-6.42-2.6-1.49-5.39-2.24-8.37-2.24s-5.74.73-8.26,2.18c-2.52,1.45-4.57,3.58-6.14,6.37-1.57,2.79-2.35,6.1-2.35,9.92s.78,7.17,2.35,10.04c1.57,2.87,3.63,5.07,6.19,6.6,2.56,1.53,5.3,2.29,8.2,2.29s5.77-.75,8.37-2.24c2.6-1.49,4.66-3.63,6.19-6.42,1.53-2.79,2.29-6.14,2.29-10.04s-.77-7.25-2.29-10.04Z"></path>
        <path class="cls-2" d="M684.5,455.12h-46.46c.38,4.59,1.99,8.18,4.82,10.78,2.83,2.6,6.31,3.9,10.44,3.9,5.97,0,10.21-2.56,12.73-7.69h17.32c-1.84,6.12-5.35,11.15-10.55,15.08-5.2,3.94-11.59,5.91-19.16,5.91-6.12,0-11.61-1.36-16.46-4.07-4.86-2.71-8.64-6.56-11.36-11.53-2.72-4.97-4.07-10.71-4.07-17.21s1.34-12.35,4.02-17.32c2.68-4.97,6.42-8.79,11.24-11.47,4.82-2.68,10.36-4.02,16.63-4.02s11.45,1.3,16.23,3.9c4.78,2.6,8.49,6.29,11.13,11.07,2.64,4.78,3.96,10.27,3.96,16.46,0,2.29-.15,4.36-.46,6.2ZM668.32,444.33c-.08-4.13-1.57-7.44-4.47-9.92-2.91-2.48-6.46-3.73-10.67-3.73-3.98,0-7.32,1.2-10.04,3.61-2.72,2.41-4.38,5.76-4.99,10.04h30.17Z"></path>
        <path class="cls-2" d="M794.34,424.77c4.78,4.78,7.17,11.45,7.17,20.02v37.28h-16.06v-35.1c0-4.97-1.26-8.78-3.79-11.42-2.52-2.64-5.97-3.96-10.32-3.96s-7.82,1.32-10.38,3.96c-2.56,2.64-3.84,6.44-3.84,11.42v35.1h-16.06v-35.1c0-4.97-1.26-8.78-3.79-11.42-2.52-2.64-5.97-3.96-10.33-3.96s-7.94,1.32-10.5,3.96c-2.56,2.64-3.84,6.44-3.84,11.42v35.1h-16.06v-63.55h16.06v7.69c2.06-2.68,4.72-4.78,7.97-6.31,3.25-1.53,6.83-2.29,10.73-2.29,4.97,0,9.41,1.05,13.31,3.15,3.9,2.1,6.92,5.11,9.06,9.01,2.06-3.67,5.07-6.61,9.01-8.83,3.94-2.22,8.2-3.33,12.79-3.33,7.8,0,14.09,2.39,18.87,7.17Z"></path>
        <path class="cls-2" d="M828.35,479.04c-4.9-2.71-8.74-6.56-11.53-11.53-2.79-4.97-4.19-10.71-4.19-17.21s1.43-12.24,4.3-17.21c2.87-4.97,6.79-8.81,11.76-11.53,4.97-2.71,10.51-4.07,16.63-4.07s11.66,1.36,16.63,4.07c4.97,2.71,8.89,6.56,11.76,11.53,2.87,4.97,4.3,10.71,4.3,17.21s-1.47,12.24-4.42,17.21c-2.95,4.97-6.92,8.82-11.93,11.53-5.01,2.72-10.61,4.07-16.81,4.07s-11.63-1.36-16.52-4.07ZM853.08,466.99c2.56-1.41,4.61-3.54,6.14-6.37,1.53-2.83,2.29-6.27,2.29-10.32,0-6.04-1.59-10.69-4.76-13.94-3.17-3.25-7.06-4.88-11.64-4.88s-8.43,1.63-11.53,4.88c-3.1,3.25-4.65,7.9-4.65,13.94s1.51,10.69,4.53,13.94c3.02,3.25,6.83,4.88,11.41,4.88,2.91,0,5.64-.71,8.2-2.12Z"></path>
        <path class="cls-2" d="M889.61,433.03c2.68-4.93,6.39-8.76,11.13-11.47,4.74-2.71,10.17-4.07,16.29-4.07,7.88,0,14.4,1.97,19.56,5.91,5.16,3.94,8.62,9.46,10.38,16.58h-17.32c-.92-2.75-2.47-4.91-4.65-6.48-2.18-1.57-4.88-2.35-8.09-2.35-4.59,0-8.22,1.66-10.9,4.99-2.68,3.33-4.02,8.05-4.02,14.17s1.34,10.73,4.02,14.05c2.68,3.33,6.31,4.99,10.9,4.99,6.5,0,10.74-2.91,12.73-8.72h17.32c-1.76,6.88-5.24,12.35-10.44,16.41-5.2,4.05-11.7,6.08-19.5,6.08-6.12,0-11.55-1.36-16.29-4.07-4.74-2.71-8.45-6.54-11.13-11.47-2.68-4.93-4.02-10.69-4.02-17.27s1.34-12.33,4.02-17.27Z"></path>
        <path class="cls-2" d="M982.82,420.47c3.33-1.91,7.13-2.87,11.41-2.87v16.86h-4.24c-5.05,0-8.85,1.19-11.41,3.56-2.56,2.37-3.84,6.5-3.84,12.39v31.66h-16.06v-63.55h16.06v9.87c2.06-3.36,4.76-6,8.09-7.92Z"></path>
        <path class="cls-2" d="M1004.62,432.98c2.56-4.97,6.04-8.79,10.44-11.47,4.4-2.68,9.31-4.02,14.74-4.02,4.74,0,8.89.96,12.45,2.87,3.56,1.91,6.4,4.32,8.55,7.23v-9.06h16.18v63.55h-16.18v-9.29c-2.06,2.98-4.92,5.45-8.55,7.4-3.63,1.95-7.82,2.92-12.56,2.92-5.35,0-10.23-1.38-14.63-4.13-4.4-2.75-7.88-6.63-10.44-11.64-2.56-5.01-3.84-10.76-3.84-17.27s1.28-12.12,3.84-17.09ZM1048.5,440.26c-1.53-2.79-3.6-4.93-6.19-6.42-2.6-1.49-5.39-2.24-8.37-2.24s-5.74.73-8.26,2.18c-2.52,1.45-4.57,3.58-6.14,6.37-1.57,2.79-2.35,6.1-2.35,9.92s.78,7.17,2.35,10.04c1.57,2.87,3.63,5.07,6.19,6.6,2.56,1.53,5.3,2.29,8.2,2.29s5.77-.75,8.37-2.24c2.6-1.49,4.66-3.63,6.19-6.42,1.53-2.79,2.29-6.14,2.29-10.04s-.77-7.25-2.29-10.04Z"></path>
        <path class="cls-2" d="M1082.45,433.03c2.68-4.93,6.39-8.76,11.13-11.47,4.74-2.71,10.17-4.07,16.29-4.07,7.88,0,14.4,1.97,19.56,5.91,5.16,3.94,8.62,9.46,10.38,16.58h-17.32c-.92-2.75-2.47-4.91-4.65-6.48-2.18-1.57-4.88-2.35-8.09-2.35-4.59,0-8.22,1.66-10.9,4.99-2.68,3.33-4.02,8.05-4.02,14.17s1.34,10.73,4.02,14.05c2.68,3.33,6.31,4.99,10.9,4.99,6.5,0,10.74-2.91,12.73-8.72h17.32c-1.76,6.88-5.24,12.35-10.44,16.41-5.2,4.05-11.7,6.08-19.5,6.08-6.12,0-11.55-1.36-16.29-4.07-4.74-2.71-8.45-6.54-11.13-11.47-2.68-4.93-4.02-10.69-4.02-17.27s1.34-12.33,4.02-17.27Z"></path>
        <path class="cls-2" d="M1152.6,408.25c-1.88-1.8-2.81-4.03-2.81-6.71s.94-4.91,2.81-6.71c1.87-1.8,4.23-2.7,7.06-2.7s5.18.9,7.06,2.7c1.87,1.8,2.81,4.04,2.81,6.71s-.94,4.92-2.81,6.71c-1.88,1.8-4.23,2.7-7.06,2.7s-5.18-.9-7.06-2.7ZM1167.58,418.52v63.55h-16.06v-63.55h16.06Z"></path>
        <path class="cls-2" d="M1183.01,432.98c2.56-4.97,6.04-8.79,10.44-11.47,4.4-2.68,9.31-4.02,14.74-4.02,4.74,0,8.89.96,12.45,2.87,3.56,1.91,6.4,4.32,8.55,7.23v-9.06h16.18v63.55h-16.18v-9.29c-2.06,2.98-4.92,5.45-8.55,7.4-3.63,1.95-7.82,2.92-12.56,2.92-5.35,0-10.23-1.38-14.63-4.13-4.4-2.75-7.88-6.63-10.44-11.64-2.56-5.01-3.84-10.76-3.84-17.27s1.28-12.12,3.84-17.09ZM1226.89,440.26c-1.53-2.79-3.6-4.93-6.19-6.42-2.6-1.49-5.39-2.24-8.37-2.24s-5.74.73-8.26,2.18c-2.52,1.45-4.57,3.58-6.14,6.37-1.57,2.79-2.35,6.1-2.35,9.92s.78,7.17,2.35,10.04c1.57,2.87,3.63,5.07,6.19,6.6,2.56,1.53,5.3,2.29,8.2,2.29s5.77-.75,8.37-2.24c2.6-1.49,4.66-3.63,6.19-6.42,1.53-2.79,2.29-6.14,2.29-10.04s-.77-7.25-2.29-10.04Z"></path>
      </g>
    </g>
  </g>
</svg>