<svg width="138" height="44" viewBox="0 0 138 44" fill="none" xmlns="http://www.w3.org/2000/svg">
<g clip-path="url(#clip0_2216_16548)">
<path d="M18.1446 32.8535L19.0036 33.4027C19.673 33.8312 20.5261 33.5958 20.9586 32.9682C21.3732 32.3647 21.3021 31.4474 20.6624 30.9827L19.7619 30.325C19.6908 30.2706 19.6375 30.0715 19.6612 29.981C19.6967 29.8784 19.9752 29.7939 20.064 29.8603L22.4869 31.5681C23.1445 32.0328 24.039 31.8156 24.4774 31.1759C24.9158 30.5362 24.7855 29.5947 24.1042 29.1119L22.8779 28.2429C22.7891 28.1826 22.7358 27.9593 22.7654 27.8688C22.8009 27.7662 23.0675 27.6877 23.1682 27.7541L26.0117 29.7637C26.6219 30.1982 27.4335 30.0715 27.9193 29.5163C28.334 29.0395 28.4761 28.086 27.9074 27.6093C27.2202 27.0239 26.5094 26.5471 25.7748 25.998C25.6741 25.9256 25.6208 25.7083 25.6622 25.5997C25.6978 25.5031 25.9584 25.4307 26.0473 25.4971L29.578 28.08C30.283 28.599 31.2486 28.1645 31.6099 27.5127C32.0779 26.6678 31.7462 25.8652 30.9998 25.3402L18.6008 16.6078C18.2572 16.3664 17.8781 16.3181 17.5285 16.5414L14.4362 18.5268C14.1874 18.6898 13.826 18.7924 13.5358 18.7743L11.3794 18.6294C10.7574 18.5872 10.2657 18.1466 10.0939 17.6095C9.90433 17.0061 10.0761 16.3181 10.6211 15.9319L18.0854 10.591C18.3935 10.3738 18.7667 10.2652 19.134 10.3014L23.7014 10.7359C24.0746 10.7721 24.4656 10.9169 24.7677 11.1221L26.9892 12.6851C27.7179 13.1981 28.642 13.3188 29.4773 13.0351L30.5318 12.6731L30.0164 11.2247C29.9749 11.11 30.0282 10.8867 30.123 10.8445C30.2593 10.7841 30.4844 10.8867 30.5436 11.0195L30.7213 11.448L34.957 9.86685C35.2651 9.75219 35.5672 9.93927 35.6442 10.2712L38.4403 22.1658C38.5055 22.4495 38.2982 22.6909 38.079 22.7754L35.1999 23.8556L35.3243 24.3263C35.3539 24.4289 35.2828 24.6462 35.1999 24.6884C35.117 24.7307 34.8681 24.6582 34.8267 24.5496L34.2817 23.0831C33.6063 23.3366 33.0139 23.8073 32.6289 24.3867C32.5696 24.4772 32.2971 24.4772 32.226 24.4108C31.758 23.9582 33.4938 22.6969 34.0862 22.5279L30.7332 13.2283L29.6787 13.5843C28.6479 13.9343 27.5342 13.7835 26.6338 13.1498L24.4596 11.6109C24.2345 11.454 23.9087 11.3454 23.6244 11.3152L19.0273 10.8747C18.8081 10.8566 18.5416 10.9712 18.352 11.11L10.9707 16.3905C10.6448 16.6259 10.5323 17.0061 10.6093 17.3682C10.6863 17.7061 11.0003 18.038 11.3972 18.0682L13.5417 18.2191C13.672 18.2311 13.9741 18.1648 14.0808 18.0984L17.2264 16.0767C17.7951 15.7086 18.4112 15.787 18.9622 16.1793L31.3197 24.8755C32.3919 25.6298 32.7651 26.9273 31.9654 28.0257C31.2426 29.0214 29.8387 29.1904 28.8493 28.2791C28.9145 29.2628 28.4524 30.0413 27.706 30.4094C26.8885 30.8077 26.0414 30.6026 25.2949 29.9749C25.3897 30.9646 24.9691 31.7612 24.2345 32.1595C23.4229 32.6001 22.5284 32.419 21.7701 31.7793C21.8412 32.6725 21.5273 33.4088 20.9052 33.8433C20.2417 34.3019 19.3768 34.3804 18.6956 33.9157L17.884 33.3665C17.8188 33.3182 17.7951 33.107 17.7951 33.0286C17.7951 32.9501 18.0617 32.8294 18.1446 32.8837V32.8535Z" fill="#002F7A"/>
<path d="M15.5964 24.9239C16.4436 25.4851 16.7872 26.4748 16.3429 27.4283C16.9294 27.38 17.3914 27.5551 17.8594 27.8749C18.7599 28.4844 19.0561 29.6612 18.4222 30.5906L17.0538 32.6002C16.414 33.5416 15.2292 33.6804 14.3406 33.0226C13.8133 32.6364 13.4342 32.1657 13.3927 31.4234C12.6522 31.7674 11.9828 31.6346 11.3785 31.2182C10.8158 30.832 10.4603 30.319 10.4011 29.6009C9.6665 29.969 8.97339 29.8121 8.37507 29.3957C7.73527 28.9551 7.32652 28.3094 7.45685 27.4163C6.79928 27.5792 6.25427 27.4163 5.70926 27.0421C4.85028 26.4627 4.48891 25.3161 5.09316 24.4049L5.7685 23.385L5.31827 21.9487C5.09909 21.2486 4.54815 20.7779 3.96168 20.3917L3.21525 21.7013C3.16193 21.7918 2.93682 21.8582 2.84796 21.822C2.74133 21.7797 2.68801 21.5081 2.74133 21.4056L2.95459 20.9831L0.28286 19.4201C0.0755192 19.2994 -0.0785052 19.0278 0.0340511 18.7563L4.75549 7.50129C4.8799 7.20558 5.1998 7.05471 5.48415 7.21765L9.42362 9.51089L9.69613 9.07638C9.74352 8.99793 9.95086 8.94965 10.0397 8.97379C10.1286 8.99793 10.2293 9.25743 10.176 9.35398L9.394 10.7722L10.2885 11.267C11.1001 11.7136 12.0539 11.6895 12.8773 11.2912L15.1758 10.1808C15.5194 10.0178 16.5028 9.77039 16.5798 10.217C16.6568 10.6635 16.0881 10.3739 15.2529 10.7722L13.0373 11.8403C11.9887 12.3473 10.8395 12.2145 9.83238 11.6774L9.0978 11.2851L4.24603 19.9029C5.35382 20.5546 5.89883 21.5202 6.17726 22.7875L6.93553 21.7194C7.57533 20.796 8.76013 20.6934 9.63096 21.3512C10.0575 21.6711 10.3596 22.0151 10.5433 22.6246C11.2956 21.8401 12.3442 21.8521 13.1676 22.4798C13.8192 22.9746 14.1747 23.6626 13.991 24.5678C14.6427 24.423 15.1166 24.604 15.6142 24.9359L15.5964 24.9239ZM7.97816 26.336L9.73167 23.7712C10.2115 23.0712 9.96271 22.2685 9.31106 21.8099C8.69497 21.3754 7.85968 21.3392 7.38576 22.0211L5.57893 24.6644C5.10501 25.3523 5.42491 26.1489 6.05878 26.5895C6.69265 27.03 7.49831 27.0361 7.97816 26.33V26.336ZM10.6677 28.581L13.2031 24.8635C13.683 24.1574 13.446 23.3789 12.7944 22.9082C12.1427 22.4375 11.3075 22.4496 10.8158 23.1677L8.16773 27.0602C7.71158 27.7301 8.08479 28.5086 8.64757 28.9129C9.34068 29.4138 10.1463 29.3353 10.6617 28.587L10.6677 28.581ZM13.6593 30.3975L15.7268 27.3619C16.2185 26.6438 15.9519 25.8412 15.2706 25.3765C14.6249 24.9359 13.8192 24.9661 13.3453 25.6601L11.2186 28.7681C10.7447 29.4621 10.9994 30.2526 11.6274 30.7052C12.3205 31.2061 13.138 31.1579 13.6534 30.3975H13.6593ZM16.6095 32.2562L17.9364 30.319C18.4341 29.5948 18.1971 28.7801 17.504 28.3094C16.8642 27.8749 16.0526 27.893 15.5787 28.587L14.2043 30.5966C13.7304 31.2967 14.0029 32.0933 14.6427 32.5398C15.2825 32.9864 16.1118 32.9804 16.6095 32.2562Z" fill="#002F7A"/>
<path d="M14.6836 39.1903C14.6303 39.2808 14.3874 39.3231 14.3163 39.2929C14.2274 39.2567 14.1386 39.0153 14.1919 38.9308L15.2819 37.0721C15.3352 36.9876 15.5544 36.9333 15.6492 36.9574C15.744 36.9816 15.8328 37.2471 15.7736 37.3436L14.6895 39.1903H14.6836Z" fill="#282828"/>
<path d="M24.2882 6.57802C24.2408 6.66854 24.0157 6.72889 23.9328 6.69872C23.8498 6.66855 23.7373 6.42112 23.7847 6.33663L24.7918 4.41755C24.8392 4.32099 25.082 4.26668 25.1709 4.30892C25.2598 4.35117 25.3427 4.58049 25.2894 4.68308L24.2941 6.58406H24.2882V6.57802Z" fill="#282828"/>
<path d="M22.86 39.7455C22.9015 39.8542 22.8304 40.0714 22.7474 40.1137C22.6467 40.168 22.3861 40.0895 22.3446 39.9749L21.5804 37.9894C21.5389 37.8868 21.6337 37.6756 21.7107 37.6334C21.8055 37.5911 22.0543 37.6635 22.0899 37.7661L22.86 39.7516V39.7455Z" fill="#282828"/>
<path d="M17.9409 5.90822C18.0001 6.04702 17.9172 6.30652 17.8165 6.34273C17.7158 6.37894 17.4907 6.28842 17.4433 6.18582L16.5902 4.25468C16.5487 4.15812 16.6198 3.92276 16.7146 3.88655C16.8094 3.85034 17.0523 3.91069 17.0997 4.01328L17.9409 5.90822Z" fill="#282828"/>
<path d="M59.2351 12.8902H53.5185L52.5114 15.5576H47.3516L53.9272 0.241211H58.9093L65.485 15.5637H60.2422L59.2351 12.8963V12.8902ZM57.8371 9.17277L56.3798 5.32254L54.9165 9.17277H57.8371Z" fill="#002F7A"/>
<path d="M68.7769 14.9906C67.7224 14.4656 66.899 13.7293 66.3066 12.7818C65.7142 11.8344 65.418 10.7602 65.418 9.56528C65.418 8.37038 65.7142 7.30221 66.3066 6.36078C66.899 5.41934 67.7224 4.68913 68.7769 4.1641C69.8314 3.63907 71.0221 3.37354 72.355 3.37354C73.7886 3.37354 75.009 3.68735 76.0279 4.31497C77.0468 4.94259 77.7458 5.81161 78.1309 6.92202L74.3692 8.80489C73.913 7.75483 73.2317 7.2298 72.3254 7.2298C71.7507 7.2298 71.2768 7.43498 70.8977 7.84535C70.5185 8.25572 70.329 8.82903 70.329 9.57131C70.329 10.3136 70.5185 10.9171 70.8977 11.3214C71.2768 11.7318 71.7567 11.937 72.3254 11.937C73.2258 11.937 73.9071 11.4119 74.3692 10.3619L78.1309 12.2447C77.7458 13.3552 77.0409 14.2242 76.0279 14.8518C75.009 15.4794 73.7886 15.7932 72.355 15.7932C71.0221 15.7932 69.8314 15.5337 68.7769 15.0087V14.9906Z" fill="#002F7A"/>
<path d="M88.1277 15.1472C87.399 15.5696 86.4038 15.7808 85.142 15.7808C83.4951 15.7808 82.2274 15.3765 81.3388 14.5678C80.4502 13.7592 80.0059 12.5462 80.0059 10.9228V7.85709H78.3945V4.24826H80.0059V0.898926H84.8636V4.24826H87.2687V7.85709H84.8636V10.8805C84.8636 11.2426 84.9583 11.5263 85.142 11.7315C85.3256 11.9366 85.5744 12.0392 85.8706 12.0392C86.2853 12.0392 86.6526 11.9306 86.9666 11.7134L88.1277 15.1472Z" fill="#002F7A"/>
<path d="M91.7296 14.9844C90.6929 14.4533 89.8813 13.7171 89.2889 12.7756C88.7025 11.8342 88.4062 10.766 88.4062 9.57114C88.4062 8.37624 88.7025 7.30807 89.2889 6.36664C89.8754 5.4252 90.687 4.69499 91.7296 4.16996C92.7663 3.64493 93.9393 3.37939 95.2426 3.37939C96.5459 3.37939 97.7366 3.64493 98.7792 4.16996C99.8159 4.69499 100.627 5.43124 101.208 6.36664C101.789 7.30807 102.079 8.37624 102.079 9.57114C102.079 10.766 101.789 11.8342 101.208 12.7756C100.627 13.7171 99.8159 14.4533 98.7792 14.9844C97.7425 15.5155 96.5636 15.781 95.2426 15.781C93.9215 15.781 92.7663 15.5155 91.7296 14.9844ZM96.6169 11.3031C96.9724 10.8867 97.156 10.3074 97.156 9.5651C97.156 8.82282 96.9783 8.24347 96.6169 7.83914C96.2615 7.42877 95.7994 7.22359 95.2426 7.22359C94.6857 7.22359 94.2236 7.42877 93.8682 7.83914C93.5128 8.24951 93.3291 8.82282 93.3291 9.5651C93.3291 10.3074 93.5068 10.8867 93.8682 11.3031C94.2236 11.7195 94.6857 11.9247 95.2426 11.9247C95.7994 11.9247 96.2615 11.7195 96.6169 11.3031Z" fill="#002F7A"/>
<path d="M112.018 3.37354V7.74879C111.633 7.68844 111.271 7.6643 110.945 7.6643C109.281 7.6643 108.451 8.52729 108.451 10.2472V15.5639H103.594V3.59079H108.214V4.88224C109.073 3.87443 110.341 3.37354 112.018 3.37354Z" fill="#002F7A"/>
<path d="M125.725 10.7237H117.561C117.733 11.1763 118.017 11.5203 118.42 11.7616C118.823 12.003 119.321 12.1237 119.925 12.1237C120.44 12.1237 120.873 12.0574 121.222 11.9246C121.572 11.7918 121.957 11.5685 122.372 11.2427L124.907 13.8497C123.764 15.1351 122.052 15.7748 119.771 15.7748C118.355 15.7748 117.105 15.5093 116.033 14.9782C114.961 14.4471 114.125 13.7049 113.539 12.7574C112.952 11.8099 112.656 10.7418 112.656 9.55893C112.656 8.3761 112.947 7.29587 113.527 6.35443C114.108 5.413 114.901 4.68278 115.909 4.15775C116.916 3.63272 118.053 3.36719 119.315 3.36719C120.506 3.36719 121.59 3.60858 122.567 4.09137C123.551 4.57416 124.327 5.28023 124.907 6.21563C125.488 7.15103 125.778 8.26748 125.778 9.56497C125.778 9.63738 125.754 10.0236 125.713 10.7237H125.725ZM118.118 7.15707C117.786 7.43467 117.573 7.82693 117.472 8.33989H121.252C121.151 7.84504 120.938 7.45277 120.606 7.16914C120.275 6.8855 119.86 6.74066 119.362 6.74066C118.865 6.74066 118.444 6.87946 118.118 7.15707Z" fill="#002F7A"/>
<path d="M128.95 15.455C127.972 15.2377 127.19 14.9541 126.586 14.598L127.919 11.3392C128.464 11.6772 129.11 11.9367 129.85 12.1237C130.597 12.3169 131.319 12.4074 132.018 12.4074C132.575 12.4074 132.966 12.3591 133.191 12.2686C133.416 12.1781 133.523 12.0332 133.523 11.8401C133.523 11.647 133.381 11.5203 133.102 11.4478C132.824 11.3754 132.368 11.303 131.74 11.2306C130.78 11.1159 129.963 10.965 129.293 10.784C128.618 10.603 128.031 10.2469 127.522 9.72187C127.012 9.19684 126.758 8.44249 126.758 7.46484C126.758 6.69238 126.989 5.99838 127.445 5.38282C127.901 4.76727 128.588 4.27845 129.495 3.91636C130.407 3.55427 131.497 3.36719 132.771 3.36719C133.659 3.36719 134.53 3.45168 135.383 3.62065C136.236 3.78963 136.959 4.03102 137.563 4.3569L136.23 7.61571C135.199 7.03033 134.068 6.74066 132.836 6.74066C131.775 6.74066 131.248 6.93378 131.248 7.30794C131.248 7.50105 131.39 7.63382 131.681 7.71227C131.965 7.79072 132.421 7.86918 133.031 7.94159C133.991 8.06229 134.803 8.21316 135.472 8.40024C136.135 8.59336 136.728 8.94941 137.231 9.47444C137.735 9.99947 137.996 10.7538 137.996 11.7315C137.996 12.4738 137.765 13.1557 137.308 13.7652C136.852 14.3808 136.165 14.8696 135.247 15.2317C134.329 15.5938 133.221 15.7808 131.918 15.7808C130.916 15.7808 129.927 15.6722 128.956 15.455H128.95Z" fill="#002F7A"/>
<path d="M52.8194 40.7717H56.1665L55.6215 43.5176H47.3516L47.7781 41.339L52.0967 37.9595C52.5469 37.5974 52.8609 37.2957 53.0327 37.0603C53.2045 36.8189 53.2934 36.5775 53.2934 36.3241C53.2934 36.0947 53.2045 35.9076 53.0327 35.7688C52.8609 35.63 52.6299 35.5576 52.3455 35.5576C52.0434 35.5576 51.7472 35.6481 51.4688 35.8232C51.1903 35.9982 50.9356 36.2456 50.7105 36.5654L48.3942 35.111C48.797 34.3989 49.3954 33.8317 50.1951 33.4092C50.9948 32.9868 51.8834 32.7695 52.8787 32.7695C53.6369 32.7695 54.3182 32.9023 54.9284 33.1618C55.5386 33.4213 56.0125 33.7834 56.3561 34.236C56.6997 34.6946 56.8715 35.2076 56.8715 35.7749C56.8715 36.4447 56.6878 37.0663 56.3265 37.6396C55.9651 38.213 55.3253 38.8466 54.4071 39.5467L52.8135 40.7778L52.8194 40.7717Z" fill="#CE1126"/>
<path d="M71.8429 40.7712H75.1899L74.6449 43.5171H66.375L66.8015 41.3385L71.1201 37.959C71.5704 37.5969 71.8843 37.2952 72.0561 37.0598C72.2279 36.8184 72.3168 36.577 72.3168 36.3236C72.3168 36.0942 72.2279 35.9072 72.0561 35.7684C71.8843 35.6296 71.6533 35.5571 71.3689 35.5571C71.0668 35.5571 70.7706 35.6477 70.4922 35.8227C70.2138 35.9977 69.959 36.2451 69.7339 36.565L67.4176 35.1106C67.8205 34.3984 68.4188 33.8312 69.2185 33.4087C70.0183 32.9863 70.9069 32.769 71.9021 32.769C72.6604 32.769 73.3416 32.9018 73.9518 33.1613C74.562 33.4208 75.0359 33.7829 75.3795 34.2355C75.7231 34.6942 75.8949 35.2071 75.8949 35.7744C75.8949 36.4443 75.7113 37.0658 75.3499 37.6392C74.9885 38.2125 74.3487 38.8461 73.4305 39.5462L71.8369 40.7773H71.8429V40.7712Z" fill="#CE1126"/>
<path d="M83.5349 37.066C84.0266 37.3014 84.4235 37.6514 84.7316 38.11C85.0337 38.5687 85.1877 39.1179 85.1877 39.7455C85.1877 40.5481 84.9922 41.2482 84.6072 41.8577C84.2162 42.4612 83.683 42.9319 82.9899 43.2638C82.2968 43.5957 81.5207 43.7587 80.644 43.7587C79.7672 43.7587 78.9971 43.5957 78.3336 43.2698C77.6701 42.944 77.1488 42.4612 76.7815 41.8275C76.4083 41.1938 76.2188 40.4154 76.2188 39.492C76.2188 38.3997 76.4616 37.3376 76.9474 36.3056C77.4332 35.2737 78.1737 34.4288 79.1748 33.7589C80.1701 33.0951 81.4023 32.7632 82.8655 32.7632C83.5112 32.7632 84.1273 32.8356 84.7079 32.9804C85.2884 33.1253 85.7564 33.3305 86.1059 33.59L84.5301 36.022C84.0385 35.684 83.4164 35.509 82.67 35.509C81.42 35.509 80.5729 36.0884 80.1227 37.2531C80.6262 36.891 81.2305 36.71 81.9473 36.71C82.5101 36.71 83.0314 36.8307 83.5231 37.066H83.5349ZM81.4437 40.9826C81.6629 40.7654 81.7755 40.4697 81.7755 40.1136C81.7755 39.8239 81.6866 39.5946 81.5148 39.4196C81.343 39.2506 81.1061 39.1661 80.798 39.1661C80.4663 39.1661 80.1878 39.2748 79.9746 39.486C79.7613 39.6972 79.6488 39.9869 79.6488 40.3369C79.6488 40.6266 79.7376 40.8619 79.9094 41.043C80.0812 41.224 80.3182 41.3145 80.6262 41.3145C80.952 41.3145 81.2245 41.2059 81.4437 40.9826Z" fill="#CE1126"/>
<path d="M59.5831 43.2698C58.9847 42.944 58.5167 42.4732 58.1909 41.8577C57.8592 41.2421 57.6992 40.5059 57.6992 39.6429C57.6992 38.3394 57.9421 37.1686 58.4219 36.1186C58.9018 35.0745 59.5712 34.2538 60.4183 33.6563C61.2655 33.0589 62.2252 32.7632 63.2856 32.7632C64.0912 32.7632 64.7962 32.9261 65.3945 33.252C65.9928 33.5779 66.4608 34.0486 66.7867 34.6642C67.1184 35.2797 67.2784 36.016 67.2784 36.8789C67.2784 38.1825 67.0355 39.3532 66.5556 40.4033C66.0758 41.4533 65.4064 42.2741 64.5592 42.8655C63.7062 43.4629 62.7524 43.7587 61.692 43.7587C60.8863 43.7587 60.1814 43.5957 59.5831 43.2698ZM63.0071 40.2584C63.2737 39.8179 63.4692 39.2868 63.6055 38.6713C63.7358 38.0557 63.8069 37.4885 63.8069 36.9695C63.8069 36.0582 63.5166 35.6056 62.936 35.6056C62.5628 35.6056 62.2429 35.8289 61.9764 36.2634C61.7098 36.7039 61.5143 37.235 61.378 37.8506C61.2477 38.4661 61.1766 39.0334 61.1766 39.5524C61.1766 40.4636 61.4669 40.9162 62.0474 40.9162C62.4207 40.9162 62.7406 40.699 63.0071 40.2584Z" fill="#CE1126"/>
<path d="M56.0125 27.9289V30.0471H47.3516V18.6533H55.8051V20.7715H49.9226V23.2458H55.118V25.2977H49.9226V27.9349H56.0125V27.9289Z" fill="#002F7A"/>
<path d="M57.8945 17.9653H60.3885V30.0471H57.8945V17.9653Z" fill="#002F7A"/>
<path d="M71.0828 26.3777H64.5782C64.6967 26.9208 64.9751 27.3493 65.4076 27.6631C65.8459 27.9769 66.385 28.1338 67.0367 28.1338C67.4869 28.1338 67.8779 28.0675 68.2274 27.9287C68.571 27.7959 68.8968 27.5786 69.193 27.2829L70.52 28.7494C69.7084 29.6908 68.5295 30.1676 66.9715 30.1676C66 30.1676 65.1469 29.9745 64.4005 29.5882C63.654 29.202 63.0794 28.6709 62.6766 27.983C62.2738 27.301 62.0664 26.5225 62.0664 25.6535C62.0664 24.7845 62.2678 24.0241 62.6647 23.3362C63.0616 22.6482 63.6126 22.1111 64.3116 21.7249C65.0106 21.3386 65.7926 21.1455 66.6516 21.1455C67.5106 21.1455 68.257 21.3326 68.9383 21.7007C69.6195 22.0688 70.1527 22.5999 70.5437 23.2879C70.9347 23.9758 71.1242 24.7785 71.1242 25.6897C71.1242 25.7199 71.1065 25.9492 71.0768 26.3717H71.0828V26.3777ZM65.2476 23.5655C64.8625 23.8914 64.6315 24.3379 64.5426 24.8992H68.7783C68.6954 24.344 68.4584 23.9034 68.0734 23.5715C67.6883 23.2396 67.2203 23.0767 66.6694 23.0767C66.1184 23.0767 65.6327 23.2396 65.2476 23.5655Z" fill="#002F7A"/>
<path d="M74.4766 29.5943C73.7479 29.208 73.1792 28.677 72.7645 27.989C72.3558 27.3071 72.1484 26.5286 72.1484 25.6596C72.1484 24.7905 72.3558 24.0181 72.7645 23.3301C73.1733 22.6482 73.742 22.1111 74.4766 21.7249C75.2052 21.3386 76.0287 21.1455 76.9469 21.1455C77.8651 21.1455 78.6412 21.3386 79.3224 21.7249C79.9978 22.1111 80.4895 22.6603 80.8034 23.3784L78.8722 24.4345C78.422 23.6319 77.7822 23.2275 76.941 23.2275C76.2893 23.2275 75.7502 23.4448 75.3296 23.8793C74.909 24.3138 74.6898 24.9052 74.6898 25.6535C74.6898 26.4018 74.9031 26.9933 75.3296 27.4278C75.7562 27.8623 76.2953 28.0795 76.941 28.0795C77.794 28.0795 78.4397 27.6752 78.8722 26.8726L80.8034 27.9468C80.4954 28.6408 80.0037 29.1839 79.3224 29.5762C78.6471 29.9684 77.8533 30.1616 76.9469 30.1616C76.0405 30.1616 75.2052 29.9684 74.4766 29.5822V29.5943Z" fill="#002F7A"/>
<path d="M87.9057 29.6188C87.6628 29.8059 87.3607 29.9447 87.0052 30.0352C86.6498 30.1257 86.2706 30.174 85.8797 30.174C84.8548 30.174 84.0669 29.9084 83.5041 29.3774C82.9473 28.8463 82.6629 28.0618 82.6629 27.0359V23.4391H81.3359V21.4838H82.6629V19.3535H85.1569V21.4838H87.2955V23.4391H85.1569V27.0057C85.1569 27.3738 85.2517 27.6575 85.4354 27.8626C85.619 28.0618 85.8856 28.1644 86.2292 28.1644C86.6261 28.1644 86.9578 28.0558 87.2363 27.8385L87.9057 29.6308V29.6188Z" fill="#002F7A"/>
<path d="M90.697 29.5943C89.9802 29.2081 89.4174 28.677 89.0086 27.989C88.6058 27.3071 88.3984 26.5286 88.3984 25.6596C88.3984 24.7905 88.5999 24.0181 89.0086 23.3301C89.4114 22.6482 89.9742 22.1111 90.697 21.7249C91.4138 21.3386 92.2254 21.1455 93.1317 21.1455C94.0381 21.1455 94.8497 21.3386 95.5606 21.7249C96.2715 22.1111 96.8342 22.6421 97.2371 23.3301C97.6399 24.0121 97.8472 24.7905 97.8472 25.6596C97.8472 26.5286 97.6458 27.301 97.2371 27.989C96.8342 28.6709 96.2715 29.2081 95.5606 29.5943C94.8438 29.9805 94.0381 30.1736 93.1317 30.1736C92.2254 30.1736 91.4138 29.9805 90.697 29.5943ZM94.7075 27.4278C95.1163 26.9872 95.3236 26.4019 95.3236 25.6596C95.3236 24.9173 95.1163 24.3319 94.7075 23.8914C94.2988 23.4508 93.7715 23.2336 93.1317 23.2336C92.4919 23.2336 91.9647 23.4508 91.55 23.8914C91.1353 24.3319 90.928 24.9173 90.928 25.6596C90.928 26.4019 91.1353 26.9872 91.55 27.4278C91.9647 27.8683 92.4919 28.0856 93.1317 28.0856C93.7715 28.0856 94.2928 27.8683 94.7075 27.4278Z" fill="#002F7A"/>
<path d="M103.098 21.4777C103.601 21.2605 104.188 21.1519 104.845 21.1519V23.4934C104.567 23.4692 104.383 23.4632 104.288 23.4632C103.578 23.4632 103.015 23.6684 102.612 24.0727C102.209 24.4771 102.002 25.0926 102.002 25.9013V30.0351H99.5078V21.2786H101.889V22.4373C102.185 22.0148 102.588 21.695 103.098 21.4777Z" fill="#002F7A"/>
<path d="M112.825 22.1232C113.536 22.7689 113.898 23.7405 113.898 25.044V30.0409H111.564V28.9486C111.096 29.7633 110.219 30.1676 108.945 30.1676C108.282 30.1676 107.713 30.0529 107.227 29.8236C106.741 29.5943 106.374 29.2805 106.119 28.8822C105.865 28.4778 105.734 28.0252 105.734 27.5123C105.734 26.6976 106.037 26.0579 106.635 25.5932C107.239 25.1285 108.163 24.8931 109.425 24.8931H111.404C111.404 24.3379 111.238 23.9155 110.906 23.6138C110.574 23.318 110.083 23.1672 109.419 23.1672C108.963 23.1672 108.513 23.2396 108.068 23.3844C107.624 23.5293 107.251 23.7284 106.943 23.9758L106.048 22.2016C106.516 21.8637 107.079 21.6042 107.737 21.4231C108.394 21.236 109.064 21.1455 109.757 21.1455C111.09 21.1455 112.109 21.4714 112.825 22.1111V22.1232ZM110.699 28.164C111.03 27.9649 111.261 27.6692 111.404 27.2769V26.3837H109.692C108.667 26.3837 108.157 26.7277 108.157 27.4097C108.157 27.7355 108.282 27.995 108.531 28.1821C108.779 28.3692 109.123 28.4658 109.561 28.4658C110 28.4658 110.367 28.3632 110.699 28.164Z" fill="#002F7A"/>
<path d="M116.148 17.9653H118.642V30.0471H116.148V17.9653Z" fill="#002F7A"/>
<path d="M129.329 26.3777H122.824C122.943 26.9208 123.221 27.3493 123.654 27.6631C124.092 27.9769 124.631 28.1338 125.283 28.1338C125.733 28.1338 126.124 28.0675 126.473 27.9287C126.817 27.7959 127.143 27.5786 127.439 27.2829L128.766 28.7494C127.954 29.6908 126.776 30.1676 125.218 30.1676C124.246 30.1676 123.393 29.9745 122.647 29.5882C121.9 29.202 121.326 28.6709 120.923 27.983C120.52 27.301 120.312 26.5225 120.312 25.6535C120.312 24.7845 120.514 24.0241 120.911 23.3362C121.308 22.6482 121.859 22.1111 122.558 21.7249C123.257 21.3386 124.039 21.1455 124.898 21.1455C125.757 21.1455 126.503 21.3326 127.184 21.7007C127.866 22.0688 128.399 22.5999 128.79 23.2879C129.181 23.9758 129.37 24.7785 129.37 25.6897C129.37 25.7199 129.353 25.9492 129.323 26.3717H129.329V26.3777ZM123.5 23.5655C123.115 23.8914 122.884 24.3379 122.795 24.8992H127.03C126.947 24.344 126.71 23.9034 126.325 23.5715C125.94 23.2396 125.472 23.0767 124.921 23.0767C124.37 23.0767 123.885 23.2396 123.5 23.5655Z" fill="#002F7A"/>
<path d="M131.84 29.9024C131.159 29.7213 130.614 29.498 130.211 29.2265L131.04 27.4039C131.425 27.6514 131.887 27.8566 132.432 28.0135C132.977 28.1704 133.511 28.2488 134.032 28.2488C135.086 28.2488 135.614 27.9833 135.614 27.4522C135.614 27.2048 135.471 27.0238 135.181 26.9151C134.891 26.8065 134.453 26.716 133.854 26.6375C133.149 26.5289 132.569 26.4022 132.113 26.2634C131.656 26.1246 131.259 25.8711 130.922 25.515C130.584 25.159 130.418 24.646 130.418 23.9822C130.418 23.427 130.578 22.9382 130.892 22.5097C131.206 22.0812 131.662 21.7493 132.267 21.5079C132.871 21.2665 133.582 21.1519 134.399 21.1519C135.009 21.1519 135.614 21.2182 136.212 21.357C136.816 21.4898 137.314 21.6829 137.705 21.9183L136.875 23.7227C136.117 23.2882 135.294 23.0709 134.399 23.0709C133.866 23.0709 133.469 23.1494 133.203 23.3003C132.936 23.4511 132.806 23.6503 132.806 23.8856C132.806 24.1572 132.948 24.3443 133.238 24.4529C133.528 24.5615 133.985 24.6641 134.612 24.7607C135.317 24.8814 135.892 25.0081 136.336 25.1409C136.787 25.2797 137.172 25.5211 137.503 25.8832C137.835 26.2392 138.001 26.7401 138.001 27.3798C138.001 27.9229 137.841 28.4057 137.521 28.8282C137.201 29.2506 136.733 29.5825 136.123 29.8118C135.513 30.0472 134.784 30.1619 133.943 30.1619C133.226 30.1619 132.533 30.0713 131.852 29.8963H131.84V29.9024Z" fill="#002F7A"/>
<path d="M42.0486 0H40.4609V43.2758H42.0486V0Z" fill="#FCD116"/>
<path d="M42.0486 19.1304H40.4609V42.3826H42.0486V19.1304Z" fill="#002F7A"/>
<path d="M42.0486 33.2461H40.4609V44.0002H42.0486V33.2461Z" fill="#CE1126"/>
</g>
<defs>
<clipPath id="clip0_2216_16548">
<rect width="138" height="44" fill="white"/>
</clipPath>
</defs>
</svg>
